<?xml version="1.0" encoding="UTF-8"?>
<svg version="1.1" xmlns="http://www.w3.org/2000/svg" width="638" height="484">
<path d="M0 0 C210.54 0 421.08 0 638 0 C638 159.72 638 319.44 638 484 C427.46 484 216.92 484 0 484 C0 324.28 0 164.56 0 0 Z " fill="#B4954C" transform="translate(0,0)"/>
<path d="M0 0 C210.54 0 421.08 0 638 0 C638 159.72 638 319.44 638 484 C427.46 484 216.92 484 0 484 C0 324.28 0 164.56 0 0 Z M228.57559204 48.87939453 C207.02010903 60.98267176 185.03193569 72.2963858 163.03515625 83.5703125 C160.731452 84.75458833 158.42806388 85.93947932 156.125 87.125 C155.0023877 87.70113037 153.87977539 88.27726074 152.72314453 88.87084961 C146.54971234 92.06598248 140.5249153 95.41927321 134.5637207 98.9934082 C124.58092762 104.9578417 115.32527128 108.52868608 104 111 C87.7366523 114.51815636 87.7366523 114.51815636 73 122 C71.906875 122.70125 70.81375 123.4025 69.6875 124.125 C63.87881752 130.3389394 60.08591041 138.43759622 60 147 C59.95101562 148.08023438 59.90203125 149.16046875 59.8515625 150.2734375 C59.05240109 180.58009725 67.29759997 210.02980321 86 234 C86.95450776 235.25024762 87.90761122 236.50156849 88.859375 237.75390625 C91.22016179 240.85136041 93.60333912 243.93023436 96 247 C95.40832031 247.10957031 94.81664062 247.21914062 94.20703125 247.33203125 C85.34058161 249.11110679 79.77082453 252.75793342 74.5625 260.3125 C69.27780829 269.15897452 66.37710679 279.44597801 63.625 289.3125 C58.80906277 306.39582048 51.2558686 321.85742847 40.8125 336.1875 C34.51838845 344.87299845 30.32989359 351.94630604 32 363 C37.24659846 374.12278874 48.91376384 377.92914523 59.5 382.375 C62.45162772 383.62426349 65.39954394 384.88178102 68.34375 386.1484375 C69.06707016 386.45948425 69.79039032 386.77053101 70.53562927 387.09100342 C76.77335819 389.81583725 82.74793962 392.93913996 88.70532227 396.22509766 C104.5089342 404.73878856 121.06336846 404.89822054 138.47387695 401.47827148 C162.31958983 396.96355693 184.96931487 409.29191415 206.04101562 419.02441406 C223.0334673 426.86046469 238.14453222 433.26937315 257 428 C258.46581449 427.4572936 259.92484921 426.89577098 261.375 426.3125 C265.77087473 424.72089018 265.77087473 424.72089018 269 426 C270.83203125 427.49609375 270.83203125 427.49609375 272.8125 429.4375 C298.17485786 452.60344452 337.52376043 466.89296042 371.6015625 465.4453125 C386.23982651 464.43138471 403.61579922 458.62149632 414.3828125 448.09375 C419.75234329 441.14189371 423.12968651 433.06705489 422.65234375 424.21875 C421.41363892 418.10681719 418.65541275 412.66441017 415.96679688 407.07421875 C414.37921649 403.66813719 413.00134608 400.18311109 411.625 396.6875 C410.90183594 394.86798828 410.90183594 394.86798828 410.1640625 393.01171875 C408.79538865 389.47061962 407.87096683 386.54376049 407.68359375 382.76953125 C407.64169922 381.96708984 407.59980469 381.16464844 407.55664062 380.33789062 C407.51732422 379.50451172 407.47800781 378.67113281 407.4375 377.8125 C407.39431641 376.96751953 407.35113281 376.12253906 407.30664062 375.25195312 C407.20068482 373.16815567 407.0998498 371.08409897 407 369 C407.81791016 369.58007812 407.81791016 369.58007812 408.65234375 370.171875 C429.21061461 384.36938172 452.43164715 383.58809104 476.1796875 379.4453125 C491.43231656 376.16822244 502.75169343 367.58504524 514.51953125 357.93359375 C525.75495934 349.17526791 539.35490148 343.91460461 552.40771484 338.45117188 C566.94732331 332.35838356 581.46325775 325.51415139 588.23046875 310.1875 C592.35753635 298.45573423 593.05270397 286.88760977 593.28930664 274.55615234 C593.71764776 252.41616892 597.70691946 234.35007713 605.90258789 213.72900391 C607.91918019 208.57435624 608.88688794 204.47423936 608 199 C604.9264506 192.46870753 599.14444682 189.01191301 593.234375 185.23046875 C585.34498541 180.1601935 578.70459564 174.50030048 572 168 C571.17242188 167.20078125 570.34484375 166.4015625 569.4921875 165.578125 C564.74783079 160.91418112 560.31508728 156.05965136 556 151 C555.10739791 149.97080998 554.21411249 148.94221238 553.3203125 147.9140625 C544.82040833 138.10864507 536.57483103 128.10602516 528.77734375 117.73046875 C509.6112945 92.01459072 509.6112945 92.01459072 482 77 C473.26565368 76.12656537 465.34674682 77.47341718 457 80 C456.59910156 79.5153125 456.19820313 79.030625 455.78515625 78.53125 C432.97172448 51.63105835 390.00127455 36.74774877 355.67578125 33.4296875 C347.86073327 32.83080492 340.03239173 32.79040331 332.19882202 32.66842651 C308.03415749 32.27037683 308.03415749 32.27037683 297.1875 30.4375 C269.30767968 25.81112957 252.41337053 35.47930847 228.57559204 48.87939453 Z " fill="#000000" transform="translate(0,0)"/>
<path d="M0 0 C13.660709 8.83675895 23.7838206 22.44312855 33.50512695 35.22070312 C46.2631355 51.96200387 59.93984745 68.0223974 74.41015625 83.3046875 C75.26480469 84.21347656 76.11945313 85.12226563 77 86.05859375 C85.31407858 94.66162925 94.82348586 101.04159741 104.87890625 107.4453125 C110.04339693 111.23898158 110.04339693 111.23898158 110.73950195 115.15966797 C111.13776445 121.97201271 108.73499598 127.51362811 106.09765625 133.6796875 C98.19062991 152.54557491 96.07581431 169.90552116 96.02929688 190.16967773 C95.96686361 206.40388836 94.71747915 221.02045094 83.36328125 233.56640625 C73.33550948 243.47640218 60.03858253 248.08103602 47.22265625 253.3046875 C34.26943365 258.61161148 23.75908744 265.08889536 12.92797852 273.93505859 C3.54512544 281.53399324 -5.84755594 286.3725896 -17.58984375 289.3046875 C-18.19159424 289.48128906 -18.79334473 289.65789062 -19.41333008 289.83984375 C-26.42296657 291.7084128 -33.50704855 291.67690354 -40.70874023 291.67529297 C-42.88800731 291.67965878 -45.065231 291.71605492 -47.24414062 291.75390625 C-58.14702317 291.84238506 -67.85805122 290.15676902 -77.21484375 284.1796875 C-78.01148438 283.68210937 -78.808125 283.18453125 -79.62890625 282.671875 C-81.58984375 281.3046875 -81.58984375 281.3046875 -83.58984375 279.3046875 C-83.06105308 274.88714016 -80.16444145 272.08997811 -77.40234375 268.8046875 C-73.58285552 264.2140264 -70.96283211 260.20688802 -68.83984375 254.5546875 C-67.47265625 251.59375 -67.47265625 251.59375 -65.58984375 249.3046875 C-61.92183942 248.16129463 -58.57035356 247.92117138 -54.73828125 247.6953125 C-43.07558938 246.91154428 -32.29069617 240.72902363 -23.58984375 233.3046875 C-22.95949219 232.79679688 -22.32914062 232.28890625 -21.6796875 231.765625 C-8.45257245 220.01488498 -1.87744852 200.27659877 -0.40490723 183.15429688 C-0.15769001 178.71088603 -0.11830494 174.27313502 -0.14379883 169.82373047 C-0.15239248 167.54174757 -0.12326415 165.2622121 -0.09179688 162.98046875 C-0.05109906 154.73966304 -0.23778668 146.58956022 -4.58984375 139.3046875 C-7.02132459 137.12411221 -8.21798728 136.36927044 -11.46875 135.8046875 C-15.58931969 136.4648038 -17.67590782 138.45954216 -20.52734375 141.3046875 C-21.35226318 142.09697754 -21.35226318 142.09697754 -22.19384766 142.90527344 C-30.57144353 151.0553065 -38.57687469 159.64029595 -46.2109375 168.48828125 C-48.90160787 171.57871266 -51.70054121 174.40236173 -54.77734375 177.1171875 C-55.59589844 177.84550781 -56.41445313 178.57382812 -57.2578125 179.32421875 C-63.12238813 184.3046875 -63.12238813 184.3046875 -65.58984375 184.3046875 C-64.04998988 178.20393311 -61.87229023 172.52790414 -59.27734375 166.8046875 C-52.94236076 152.65571752 -48.8556645 138.62750407 -46.58984375 123.3046875 C-46.40550781 122.36367187 -46.22117187 121.42265625 -46.03125 120.453125 C-43.39718379 101.66500669 -44.97180779 77.54075941 -53.58984375 60.3046875 C-53.54875763 55.05593565 -52.618133 50.16315525 -51.02734375 45.1796875 C-48.08595227 34.89937865 -48.39075529 24.24567627 -52.71484375 14.44140625 C-53.58984375 12.3046875 -53.58984375 12.3046875 -53.58984375 9.3046875 C-51.02734375 7.40234375 -51.02734375 7.40234375 -47.58984375 5.3671875 C-46.99478027 5.01382324 -46.3997168 4.66045898 -45.78662109 4.29638672 C-30.7313893 -4.5617961 -16.07565635 -9.0255658 0 0 Z " fill="#000000" transform="translate(493.58984375,85.6953125)"/>
<path d="M0 0 C15.23287167 2.5701553 30.1197976 3.15922224 45.54125977 3.28466797 C60.60082936 3.42668612 74.69009209 4.50183763 89.13793945 9.17553711 C90.24186035 9.52487305 91.34578125 9.87420898 92.4831543 10.23413086 C116.57725749 18.02938352 143.1548792 27.36466454 159.51293945 47.61303711 C156.20130755 51.32607894 152.56520905 53.5020355 148.26293945 55.86303711 C147.61325195 56.22655273 146.96356445 56.59006836 146.29418945 56.96459961 C144.70375519 57.8533717 143.10879498 58.73403647 141.51293945 59.61303711 C141.05943115 59.2444458 140.60592285 58.87585449 140.13867188 58.49609375 C134.69622001 54.22778351 129.00353867 51.12278699 122.82543945 48.05053711 C114.82400275 43.98283957 107.10079734 39.65835064 99.51293945 34.86303711 C74.5372509 19.10742189 52.57588388 11.99410469 22.8684082 18.08569336 C15.39038571 19.78246804 8.10841932 22.04819718 0.82543945 24.42553711 C-1.05304688 25.02857666 -1.05304688 25.02857666 -2.96948242 25.64379883 C-12.61510125 28.91356566 -27.58012038 34.79915677 -32.48706055 44.61303711 C-37.94977709 44.86711695 -37.94977709 44.86711695 -40.5769043 43.62475586 C-44.82952171 42.14632913 -48.89030259 42.27294601 -53.36206055 42.30053711 C-54.76282837 42.30790894 -54.76282837 42.30790894 -56.19189453 42.31542969 C-79.62855765 42.70748161 -99.07044713 52.20783205 -115.48706055 68.61303711 C-116.33010742 69.43288086 -117.1731543 70.25272461 -118.04174805 71.09741211 C-135.18849318 88.73719464 -145.92704452 110.8034136 -145.78027344 135.40893555 C-145.31045899 165.09041854 -131.14699846 191.78016194 -114.48706055 215.61303711 C-107.11994967 226.26083712 -100.5367998 237.16164431 -94.48706055 248.61303711 C-93.93663086 249.63397461 -93.38620117 250.65491211 -92.8190918 251.70678711 C-89.28118166 258.76185719 -88.25123425 265.8002164 -87.48706055 273.61303711 C-113.18992483 267.90128949 -133.17788268 253.35770401 -151.15112305 234.85131836 C-162.32689566 222.47164894 -162.32689566 222.47164894 -177.36206055 216.98803711 C-181.00527456 217.28891295 -183.56276402 218.3490656 -186.48706055 220.61303711 C-190.01464505 218.00906003 -192.29907479 215.7128929 -194.48706055 211.92553711 C-197.130371 207.57965769 -199.9990029 203.61301542 -203.1628418 199.63110352 C-213.91338353 186.07244614 -221.03387213 172.31689407 -225.48706055 155.61303711 C-225.92985352 154.04102539 -225.92985352 154.04102539 -226.3815918 152.43725586 C-230.89627678 135.64618611 -234.41629532 114.42621754 -226.29174805 98.23022461 C-220.95812001 89.99242215 -211.2717807 85.31641822 -201.95678711 82.9777832 C-198.40213205 82.24391465 -194.83290481 81.63132881 -191.25463867 81.02514648 C-175.76270572 78.36650194 -163.41370666 71.54665383 -149.8359375 63.84243774 C-141.24892768 58.97865162 -132.52324077 54.41778777 -123.73706055 49.92553711 C-122.32202085 49.20092898 -120.90698178 48.47631961 -119.49194336 47.75170898 C-116.75638551 46.35175429 -114.02006895 44.95329362 -111.28344727 43.55541992 C-98.73120082 37.1390294 -86.23956437 30.6107149 -73.86206055 23.86303711 C-72.98356445 23.38447266 -72.10506836 22.9059082 -71.19995117 22.4128418 C-66.44013841 19.80902405 -61.69943879 17.17431037 -56.97894287 14.50003052 C-54.39361006 13.0370219 -51.80328133 11.58297575 -49.21270752 10.12927246 C-47.95653241 9.42097325 -46.70281456 8.70829472 -45.45184326 7.99084473 C-30.03993674 -0.84618353 -17.41166117 -2.95256285 0 0 Z " fill="#010100" transform="translate(294.487060546875,33.386962890625)"/>
<path d="M0 0 C8.17188826 0 12.03687716 2.65481735 18 8 C19.16595703 8.98806641 19.16595703 8.98806641 20.35546875 9.99609375 C24.44948905 13.514071 28.05634684 17.13313097 31.48828125 21.2890625 C34.3563698 24.53511621 37.68390278 27.22785597 41 30 C41.72759521 30.61834717 42.45519043 31.23669434 43.20483398 31.8737793 C49.21988734 36.85814412 55.3763914 40.79749909 62.3125 44.375 C63.37774902 44.92591309 64.44299805 45.47682617 65.54052734 46.04443359 C81.66465139 54.11232333 98.83358394 60.08658288 116.57788086 63.30834961 C121.03891387 64.20997667 125.28997947 65.56815064 129.6171875 66.9609375 C134.75241516 68.53827071 139.95680397 69.79604318 145.17578125 71.0625 C147.4504648 71.62013437 149.72088703 72.19651966 151.98046875 72.8125 C167.43841987 76.99857421 183.17339323 78.54303602 199.14697266 78.50097656 C201.76443526 78.49999458 204.37904255 78.54206814 206.99609375 78.5859375 C218.91331812 78.67089684 231.0856039 77.81960667 241.18310547 70.78125 C244 69 244 69 246.17138672 69.03320312 C246.83412598 69.28005859 247.49686523 69.52691406 248.1796875 69.78125 C248.93531982 70.04454102 249.69095215 70.30783203 250.46948242 70.57910156 C251.66021362 71.03494629 251.66021362 71.03494629 252.875 71.5 C254.57556808 72.09215771 256.27741648 72.68065022 257.98046875 73.265625 C258.82657715 73.56275391 259.67268555 73.85988281 260.54443359 74.16601562 C276.25190759 79.5007473 292.52923212 81.02204816 309 82 C308.4768233 86.60567033 306.47607144 89.76810438 303.8125 93.4375 C303.37325195 94.04368164 302.93400391 94.64986328 302.48144531 95.27441406 C285.99667061 117.33375026 265.58770104 129.72994222 238.54391479 134.51010132 C227.42748422 136.04679873 216.0635008 135.75349293 204.85748291 135.74859619 C200.61867234 135.75141969 196.38000517 135.7845538 192.14133072 135.81666946 C188.84794936 135.8416018 185.55517467 135.85977935 182.26165771 135.86248779 C175.94009536 135.88277432 169.72669022 136.09204363 163.43922424 136.76635742 C145.63578753 138.47167044 125.90499706 138.04071722 111.19824219 126.59814453 C107.28098635 123.36474177 103.50330226 119.97864731 99.73828125 116.5703125 C82.05289542 100.5938516 62.63534865 92.80032499 39.73632812 87.21630859 C29.86920323 84.72005127 20.45165967 81.06666395 15 72 C13.31270448 67.74366098 12.15277781 63.42549447 11 59 C8.59115408 49.85330864 4.78339953 41.50525127 0.8515625 32.92578125 C0.37203125 31.86230469 -0.1075 30.79882812 -0.6015625 29.703125 C-1.25632568 28.27468262 -1.25632568 28.27468262 -1.92431641 26.81738281 C-3.78381434 21.9470682 -4.1698043 17.11680549 -4.25 11.9375 C-4.27578125 10.93589844 -4.3015625 9.93429687 -4.328125 8.90234375 C-3.91729552 5.26845916 -2.60301878 2.60301878 0 0 Z " fill="#000000" transform="translate(114,254)"/>
<path d="M0 0 C1.12543213 -0.01047363 2.25086426 -0.02094727 3.41040039 -0.03173828 C19.07255845 0.13621435 32.23531495 5.15767204 45.25 13.5625 C51.88949107 17.76042119 58.55298285 21.84064888 65.4375 25.625 C66.5198291 26.22235962 66.5198291 26.22235962 67.62402344 26.83178711 C71.45141905 28.9332617 75.29844987 30.99357071 79.16015625 33.03125 C79.97009033 33.46542236 80.78002441 33.89959473 81.61450195 34.34692383 C83.14933136 35.16923802 84.69044998 35.97997455 86.23901367 36.77612305 C93.42351403 40.64508196 98.47292694 46.20536001 101.55859375 53.796875 C104.96672517 66.81324134 100.17571297 79.50601231 96.33984375 91.82421875 C83.39088198 134.75536442 76.54857092 178.65919226 75.25 223.4375 C27.13796735 245.03407908 27.13796735 245.03407908 2.25 245.4375 C1.51620117 245.45119629 0.78240234 245.46489258 0.02636719 245.47900391 C-15.99704897 245.74173475 -15.99704897 245.74173475 -23.75 244.4375 C-23.83777806 240.27096814 -23.89065272 236.10467724 -23.9375 231.9375 C-23.96263672 230.76445312 -23.98777344 229.59140625 -24.01367188 228.3828125 C-24.09950167 218.19767627 -22.85804763 212.01087526 -15.5625 204.4375 C-15.07201172 203.92405029 -14.58152344 203.41060059 -14.07617188 202.8815918 C-13.09368354 201.85752429 -12.10569168 200.83870359 -11.11181641 199.82568359 C-9.94067472 198.63186652 -8.78693109 197.42102616 -7.63671875 196.20703125 C-2.41019508 190.78573031 3.35133926 186.10500037 9.25 181.4375 C10.21550781 180.65503906 11.18101562 179.87257812 12.17578125 179.06640625 C26.40881611 167.76317018 41.93556318 158.78181128 58.09057617 150.50878906 C70.44249469 144.06828883 80.97513061 136.73347368 85.625 123.1875 C90.07657703 106.82748485 84.95151831 92.51944634 76.99609375 78.20703125 C68.31462266 64.43709165 54.05065362 60.92414841 39.2019043 56.87963867 C31.95848147 55.23888336 22.48492668 55.13724404 16.02734375 59.09375 C11.54884721 62.47969024 7.38219421 65.73920869 4.25 70.4375 C1.42462936 69.24215088 -0.42075074 67.87625959 -2.8125 65.875 C-6.83874412 62.53407403 -10.07291016 61.98250268 -15.140625 62.015625 C-20.23727489 62.83963426 -24.42695422 65.74542149 -28.75 68.4375 C-30.41605722 69.43851504 -32.08254 70.43882342 -33.75 71.4375 C-34.04132813 70.20515625 -34.33265625 68.9728125 -34.6328125 67.703125 C-39.28768462 47.91129102 -39.28768462 47.91129102 -52.75 33.4375 C-59.19270369 29.87304559 -65.52328878 27.74067743 -72.75 26.4375 C-64.74278705 17.62956576 -55.2786256 13.01898434 -44.125 9.25 C-42.87662354 8.82219238 -41.62824707 8.39438477 -40.34204102 7.95361328 C-36.81787646 6.76077679 -33.2852358 5.59700597 -29.75 4.4375 C-28.95223145 4.16180176 -28.15446289 3.88610352 -27.33251953 3.60205078 C-18.23429955 0.4797021 -9.55036866 0.08383739 0 0 Z " fill="#010100" transform="translate(338.75,52.5625)"/>
<path d="M0 0 C3.35537627 1.34215051 5.45789202 2.45789202 8 5 C8.20511024 7.26500305 8.31412476 9.53904377 8.375 11.8125 C9.045369 24.85450572 14.08137549 35.62125852 19.35180664 47.39477539 C21.82496801 53.00413543 23.94111936 58.47533177 25.375 64.4375 C27.69735198 74.05715062 30.59896726 80.33418722 39 86 C46.09096967 89.92412884 53.84452604 91.82543104 61.625 93.875 C85.07909046 100.05416253 101.93775383 109.97146385 119.6875 126.3125 C126.739039 132.60484046 136.36427097 138.9487179 145.93994141 140.26708984 C151.29607157 141.11736775 151.29607157 141.11736775 153.29443359 143.62304688 C154.38184015 145.75334929 155.27249383 147.89047924 156.125 150.125 C156.77675999 151.67357785 157.43555863 153.21921322 158.1015625 154.76171875 C158.41770508 155.49825684 158.73384766 156.23479492 159.05957031 156.99365234 C160.83194695 160.77490655 163.37454542 163.78381814 166 167 C166 167.66 166 168.32 166 169 C140.71022001 177.98621624 123.62267096 169.81869556 100.27246094 159.12133789 C79.99622271 149.83644431 60.51064848 141.99020261 37.75 146 C14.98372542 149.86914519 -1.14351747 143.22927991 -21.29443359 133.32470703 C-29.27982398 129.41487774 -37.31865351 125.64833519 -45.5625 122.3125 C-51.64719639 119.81328242 -56.61202677 117.03804334 -61 112 C-62.9307318 106.20780459 -62.76478723 100.94826733 -60.1875 95.375 C-57.75184096 90.89117313 -54.75935899 86.92995861 -51.6875 82.875 C-40.59157866 68.15603448 -34.59712818 51.21822977 -28.99609375 33.80859375 C-28.65320313 32.75091797 -28.3103125 31.69324219 -27.95703125 30.60351562 C-27.29748588 28.55538717 -26.64954313 26.5034704 -26.015625 24.44726562 C-23.02632292 15.11988634 -19.16198571 6.75048993 -11 1 C-7.54911896 -0.72544052 -3.78047152 -0.36851655 0 0 Z " fill="#010000" transform="translate(98,252)"/>
<path d="M0 0 C7.1500807 3.30218991 10.1113292 11.14866541 13 18 C15.7845504 25.82326066 16.0665475 33.58355706 16.04296875 41.80078125 C16.04085892 42.57712921 16.03874908 43.35347717 16.03657532 44.15335083 C16.03026885 45.85768199 16.0224866 47.56200816 16.01342773 49.2663269 C16.00429969 51.12465218 15.99822627 52.98299444 15.99487305 54.84133911 C15.98109692 60.96552752 15.89837673 67.08412289 15.74975586 73.20654297 C15.70804673 75.32929214 15.68643152 77.45252574 15.68432617 79.57568359 C15.64184526 100.1081228 15.64184526 100.1081228 8.71875 107.078125 C6.86251678 108.79402431 4.95272005 110.39014269 3 112 C-3.59446546 119.29412101 -8.69814462 127.51505883 -13.40625 136.1015625 C-15 139 -15 139 -17 142 C-17.51046875 141.00742187 -18.0209375 140.01484375 -18.546875 138.9921875 C-33.44122502 110.83321133 -62.20370336 87.53228524 -92.29296875 76.97265625 C-96.50109927 73.90612535 -97.42164043 69.83160164 -99 65 C-99.31267822 64.09886475 -99.62535645 63.19772949 -99.94750977 62.26928711 C-100.89534489 59.50216045 -101.79640898 56.7233728 -102.6875 53.9375 C-102.99494141 53.00873047 -103.30238281 52.07996094 -103.61914062 51.12304688 C-106.49881439 42.14375779 -107.16287756 33.8189416 -107.0625 24.4375 C-107.05798828 23.61958984 -107.05347656 22.80167969 -107.04882812 21.95898438 C-107.03721198 19.97262353 -107.01928448 17.9863012 -107 16 C-106.52691406 16.39832031 -106.05382812 16.79664063 -105.56640625 17.20703125 C-100.60415923 21.18263266 -96.14852614 23.44744574 -90 25 C-89.22914063 25.20496094 -88.45828125 25.40992188 -87.6640625 25.62109375 C-70.42228998 29.66649345 -51.61217627 25.97505081 -36.23828125 17.47265625 C-30.21983412 13.73858321 -24.48487406 9.55650055 -18.76977539 5.3762207 C-12.41843456 0.75449827 -7.94315802 -1.32590582 0 0 Z " fill="#000000" transform="translate(331,118)"/>
<path d="M0 0 C0.00257813 1.0415625 0.00515625 2.083125 0.0078125 3.15625 C0.26462096 16.06505386 3.69349902 26.04535486 9.17578125 37.6171875 C16.97509736 54.1587452 16.97509736 54.1587452 15 62 C10.74472841 73.8465575 4.44603262 79.16641963 -6.51782227 84.59350586 C-32.02198697 96.55270387 -59.73217889 90.32218295 -85.01171875 81.3359375 C-99.138 76.02055505 -112.46199096 68.76157777 -124 59 C-124.86625 58.29488281 -125.7325 57.58976562 -126.625 56.86328125 C-136.6531525 48.34852371 -143.78498262 38.04566761 -149 26 C-149 25.67 -149 25.34 -149 25 C-148.44127197 24.97494385 -147.88254395 24.9498877 -147.30688477 24.92407227 C-144.72527572 24.80656895 -142.14389764 24.6845562 -139.5625 24.5625 C-138.24475586 24.50352539 -138.24475586 24.50352539 -136.90039062 24.44335938 C-136.02705078 24.40146484 -135.15371094 24.35957031 -134.25390625 24.31640625 C-133.06776733 24.26141968 -133.06776733 24.26141968 -131.85766602 24.20532227 C-129.54791581 24.03936755 -127.29318674 23.7862568 -124.99804688 23.49560547 C-118.93465732 22.80659728 -112.87372037 22.80720709 -106.77734375 22.75390625 C-104.190752 22.72095399 -101.60416354 22.68774259 -99.01757812 22.65429688 C-94.98514846 22.60613502 -90.95269394 22.56224873 -86.92016602 22.52319336 C-58.09905395 22.22800012 -27.67112896 21.83693892 -4.5625 2.125 C-2 0 -2 0 0 0 Z " fill="#010000" transform="translate(403,370)"/>
<path d="M0 0 C4.08209702 1.32622526 8.07373455 2.79159627 12.0625 4.375 C17.45739675 6.47165306 22.87234473 8.24077029 28.44140625 9.8125 C38.45759407 13.15489418 47.14799999 17.64360388 55.83666992 23.57324219 C57.55690138 24.74618258 59.28798507 25.90147078 61.02148438 27.0546875 C76.65327462 37.53707757 91.75726442 49.3294312 101 66 C101.52948242 66.92264648 102.05896484 67.84529297 102.60449219 68.79589844 C107.4415876 78.05720323 107.73977871 85.66408094 107.375 95.8125 C107.34481056 97.29486665 107.31745084 98.77729373 107.29296875 100.25976562 C107.22780147 103.84112959 107.12480007 107.42015809 107 111 C105.91501221 110.84241211 104.83002441 110.68482422 103.7121582 110.52246094 C101.34839094 110.18977682 98.97926678 109.89193618 96.60546875 109.640625 C89.69612469 108.85098568 84.21369816 107.64300915 78.18359375 104.12109375 C68.19152343 98.99099682 49.99346471 100.76064888 39.65625 103.96875 C28.49931273 108.30026682 19.03100625 114.07123079 12 124 C10.35 123.67 8.7 123.34 7 123 C2.60416636 107.96016666 2.19041949 94.09011692 4.07714844 78.60302734 C7.02354234 54.36842717 8.63587821 29.60124242 1.57250977 5.93408203 C0.99049494 3.96788953 0.4845693 1.99221091 0 0 Z " fill="#010100" transform="translate(205,186)"/>
<path d="M0 0 C2.96972573 1.18692922 3.73123077 2.2711574 5.4140625 4.96484375 C7.78981704 13.31908342 7.76731696 22.158661 7.7265625 30.77734375 C7.71919067 32.62392578 7.71919067 32.62392578 7.71166992 34.5078125 C7.45576407 54.37135559 1.90441612 74.36494895 -11.87109375 89.3828125 C-28.4284783 104.65784836 -48.13853711 107.91853928 -69.85546875 107.3359375 C-88.49631658 106.4942281 -105.75862273 100.66950299 -123.39599609 94.98535156 C-127.29849128 93.73688762 -131.21493654 92.54875589 -135.1484375 91.40234375 C-135.77161865 91.21865234 -136.3947998 91.03496094 -137.03686523 90.84570312 C-141.48253357 89.54608994 -145.94580504 88.31726482 -150.4140625 87.09765625 C-151.64568115 86.75677979 -152.8772998 86.41590332 -154.14624023 86.06469727 C-156.57515397 85.39318614 -159.00682953 84.73155361 -161.44165039 84.08178711 C-169.34681981 81.88631131 -176.38543576 78.89350835 -183.5859375 74.96484375 C-183.5859375 74.63484375 -183.5859375 74.30484375 -183.5859375 73.96484375 C-182.25252098 74.10991453 -180.91920986 74.25595405 -179.5859375 74.40234375 C-178.4721875 74.52416016 -178.4721875 74.52416016 -177.3359375 74.6484375 C-175.29286882 74.88350648 -173.25545295 75.16882048 -171.22265625 75.48046875 C-133.20790717 80.20453682 -97.44020436 69.22698695 -63.50732422 52.86987305 C-61.62549238 51.98347526 -59.72697034 51.16314279 -57.80859375 50.359375 C-40.56209296 42.89634375 -26.84754895 25.67956154 -14.8984375 11.65234375 C-12.37560704 8.76558421 -9.73770987 6.04688887 -6.9609375 3.40234375 C-6.24679687 2.72042969 -5.53265625 2.03851563 -4.796875 1.3359375 C-2.5859375 -0.03515625 -2.5859375 -0.03515625 0 0 Z " fill="#010100" transform="translate(482.5859375,225.03515625)"/>
<path d="M0 0 C1.4783284 0.81907384 2.93938477 1.67067842 4.375 2.5625 C4.99375 2.9440625 5.6125 3.325625 6.25 3.71875 C16.6769969 11.3528013 21.7030232 26.43964232 24.375 38.5625 C25.5700891 48.35303763 24.06040598 57.28083178 18.1875 65.3125 C9.67714244 75.37019529 -2.68657905 80.82468581 -14.1015625 86.9765625 C-28.66787747 94.87157136 -41.99971774 103.80561439 -54.625 114.5625 C-55.7177615 115.47124207 -56.81156151 116.3787364 -57.90625 117.28515625 C-64.10848236 122.4430173 -70.06556956 127.70074404 -75.625 133.5625 C-75.955 132.9025 -76.285 132.2425 -76.625 131.5625 C-71.55829967 123.86454225 -66.30277486 116.79338253 -59.96875 110.05859375 C-57.90526792 107.86098533 -55.94436395 105.61480367 -54 103.3125 C-50.51887406 99.3248823 -46.67249147 95.96239283 -42.625 92.5625 C-40.8686799 91.0741915 -39.11503446 89.58283536 -37.36352539 88.08886719 C-36.15292183 87.05669007 -34.93999297 86.02723179 -33.72436523 85.00097656 C-25.88256417 78.96180485 -25.88256417 78.96180485 -21.625 70.5625 C-25.29614927 72.5941693 -28.04223496 74.78491023 -30.9375 77.8125 C-36.78578218 83.78707399 -42.64597353 88.94914472 -49.625 93.5625 C-49.61611755 92.71440262 -49.60723511 91.86630524 -49.5980835 90.99250793 C-49.51748361 82.94688298 -49.45680704 74.90139625 -49.41775131 66.85545826 C-49.39699637 62.72027485 -49.36890427 58.58542879 -49.32324219 54.45043945 C-49.27934711 50.44980811 -49.25577232 46.44949846 -49.24549103 42.44864464 C-49.23817705 40.93261345 -49.2238979 39.41659716 -49.20207977 37.90070534 C-49.08177797 29.18489699 -49.68549779 21.67555653 -52.86138916 13.40922546 C-53.76536558 10.03922002 -53.51336484 7.91726712 -52.625 4.5625 C-40.15658453 -13.95120782 -17.16996965 -8.03700707 0 0 Z " fill="#010100" transform="translate(398.625,119.4375)"/>
<path d="M0 0 C0 0.33 0 0.66 0 1 C-1.06476563 1.21914062 -2.12953125 1.43828125 -3.2265625 1.6640625 C-22.78409994 5.86160096 -38.5838232 13.8600914 -53 28 C-53.95519531 28.91845703 -53.95519531 28.91845703 -54.9296875 29.85546875 C-65.1351444 40.49182272 -68.62955732 53.2768743 -68.3359375 67.63671875 C-67.79119225 78.0341497 -61.9476595 87.49424982 -55 95 C-52.97101371 96.50461191 -50.90670294 97.96257074 -48.8125 99.375 C-42.10053131 104.08945972 -40.03554276 109.23376254 -38 117 C-37.82903809 117.62253662 -37.65807617 118.24507324 -37.48193359 118.88647461 C-31.26728889 142.25594881 -34.46213879 165.89259454 -37.54248047 189.4375 C-38.07969671 193.62056261 -38.55534552 197.80620618 -39 202 C-41.51856196 198.90273934 -43.41642988 195.5811054 -45.36157227 192.11303711 C-50.22239936 183.4501858 -55.48562245 175.15640117 -61.0625 166.9375 C-78.84274726 140.62498763 -96.9790453 108.27994472 -90.9375 75.3125 C-84.97029904 50.0071478 -67.20709836 25.92657932 -45.875 11.3125 C-31.58797843 2.59843011 -16.55746249 -0.42944427 0 0 Z " fill="#020201" transform="translate(243,79)"/>
<path d="M0 0 C0.82765869 -0.01861084 1.65531738 -0.03722168 2.50805664 -0.05639648 C14.98662941 0.07194031 25.06083792 7.79164297 33.75 16.1875 C39.08165944 21.8118281 41.69627309 27.77502578 42.4375 35.5 C42.35174283 38.51504147 42.2131517 39.96183915 40.23046875 42.265625 C37.8217953 43.96376213 35.41353518 45.23473093 32.75 46.5 C31.64011719 47.03625 30.53023438 47.5725 29.38671875 48.125 C14.10627169 55.07217593 -3.86258399 57.39036231 -20.25 52.5 C-25.48408123 50.2931197 -29.96912396 47.76924043 -32.875 42.75 C-34.74044389 38.09085305 -35.19466908 33.43050968 -34.25 28.5 C-30.0803757 21.80333067 -23.79322357 17.53846637 -16.25 15.5 C-1.92679859 14.11857448 9.63199574 16.66040904 21.140625 25.75390625 C22.91303517 27.67688525 23.36947478 28.94264666 23.75 31.5 C23.12996094 31.2834375 22.50992188 31.066875 21.87109375 30.84375 C12.78818304 27.98798768 2.43537025 26.64867394 -6.8125 29.625 C-10.74159256 31.7681414 -13.98305594 33.54927503 -16.25 37.5 C-17.07330719 41.02130712 -17.13996066 43.98826333 -16.25 47.5 C-13.13642843 50.76925015 -11.06252318 51.38792784 -6.625 52 C2.89938966 51.4536679 11.31422543 47.20123442 18.75 41.5 C19.43449219 41.01402344 20.11898437 40.52804688 20.82421875 40.02734375 C24.19092131 37.46646452 25.56801879 36.04594364 26.9375 31.9375 C26.70501308 27.67523976 25.60551963 26.59628856 22.75 23.5 C11.46230064 14.9115331 -0.10375533 11.48397138 -14.25 12.5 C-23.2923632 13.87005503 -29.83349932 18.77652282 -35.9921875 25.36328125 C-38.86392017 30.24165942 -38.10846795 36.94075255 -38.25 42.5 C-38.29084717 43.88131104 -38.29084717 43.88131104 -38.33251953 45.29052734 C-38.7063845 59.59850439 -38.85439311 73.7283068 -33.5 87.25 C-32.20559016 90.61546558 -32.21202846 91.27387223 -33.25 94.5 C-40.1948811 89.00393763 -45.07711019 83.31769679 -49.25 75.5 C-49.75917969 74.55769531 -50.26835937 73.61539063 -50.79296875 72.64453125 C-56.04265747 61.27755819 -56.28323755 46.75965556 -52.625 34.8125 C-46.0283629 18.59768923 -36.09378505 10.12537872 -20.2265625 3.17578125 C-13.51366132 0.71668506 -7.08503743 0.10375987 0 0 Z " fill="#040301" transform="translate(259.25,86.5)"/>
<path d="M0 0 C1.93165141 1.48779313 3.83465 3.01417227 5.6953125 4.58984375 C13.89054421 10.72051756 24.79861586 13.19876202 34.48046875 15.96875 C35.65843018 16.31164062 36.8363916 16.65453125 38.05004883 17.0078125 C41.39984985 17.98108894 44.7521342 18.94523019 48.10546875 19.90625 C49.72660155 20.37356246 51.34770113 20.84099022 52.96875 21.30859375 C56.01224322 22.18216024 59.0571283 23.04978466 62.10546875 23.90625 C61.77546875 24.89625 61.44546875 25.88625 61.10546875 26.90625 C58.59375 28.0390625 58.59375 28.0390625 55.41796875 29.03125 C54.38285156 29.36382812 53.34773438 29.69640625 52.28125 30.0390625 C46.55744434 31.6020205 40.99319869 32.10100844 35.078125 32.21484375 C34.30477814 32.23006073 33.53143127 32.24527771 32.73464966 32.26095581 C7.2494712 32.66748733 -15.87130131 29.50783178 -40.3828125 22.20703125 C-46.21350642 20.48497085 -52.11925553 19.05513994 -58.01953125 17.59375 C-59.09517334 17.32691406 -60.17081543 17.06007813 -61.27905273 16.78515625 C-63.81707069 16.15690329 -66.35552506 15.53049509 -68.89453125 14.90625 C-66.02100579 7.10208914 -59.13823805 2.89691712 -51.95703125 -0.90625 C-50.28359424 -1.66713688 -48.59583648 -2.39740181 -46.89453125 -3.09375 C-46.13527344 -3.4134375 -45.37601563 -3.733125 -44.59375 -4.0625 C-30.96165369 -8.75872457 -11.8555771 -8.57569409 0 0 Z " fill="#020100" transform="translate(289.89453125,297.09375)"/>
<path d="M0 0 C1.83415944 1.58385062 3.38848056 3.18054256 5 5 C4.67 5.66 4.34 6.32 4 7 C3.16597656 6.38511719 2.33195312 5.77023438 1.47265625 5.13671875 C0.33636578 4.31971651 -0.80037773 3.50334412 -1.9375 2.6875 C-2.75444336 2.08131836 -2.75444336 2.08131836 -3.58789062 1.46289062 C-10.85234418 -3.70200988 -18.21784851 -5.55618282 -27.0625 -5.4375 C-27.88322998 -5.42847656 -28.70395996 -5.41945313 -29.54956055 -5.41015625 C-45.60091101 -4.96381185 -59.80212606 0.3396732 -72 11 C-83.36822916 24.29504766 -86.93321588 39.61999173 -85.828125 56.6484375 C-84.30644485 68.71318725 -77.30531028 82.15863546 -68 90 C-65.38392527 91.6478613 -62.77500448 93.14488328 -60.00390625 94.515625 C-58 96 -58 96 -57.21484375 98.671875 C-57.10849609 99.82429688 -57.10849609 99.82429688 -57 101 C-73.47444394 98.35232151 -90.62508631 89.28240164 -101.34765625 76.40625 C-108.46703684 66.03854683 -110.20459058 55.28513521 -109 43 C-105.34155879 27.07831454 -92.07660591 14.89162966 -79.1328125 6.0390625 C-57.16276269 -7.59546706 -22.8213408 -16.27384593 0 0 Z " fill="#030201" transform="translate(287,90)"/>
<path d="M0 0 C0.66 0.33 1.32 0.66 2 1 C2.7726945 3.56860556 3.42051598 6.07419583 4 8.6875 C4.17370117 9.45916504 4.34740234 10.23083008 4.52636719 11.02587891 C10.86477647 39.86980332 8.45632841 67.74344228 -3 95 C-3.85850957 97.10997046 -4.7151744 99.22069214 -5.5703125 101.33203125 C-7.28785585 105.53723417 -9.01009645 109.74018379 -10.765625 113.9296875 C-11.12430664 114.78804199 -11.48298828 115.64639648 -11.85253906 116.53076172 C-13.0831292 119.17888696 -14.3088643 121.61480514 -16 124 C-16.99 124 -17.98 124 -19 124 C-19.51895825 107.4894393 -18.01788624 91.37824868 -16 75 C-15.8767334 73.9569873 -15.7534668 72.91397461 -15.62646484 71.83935547 C-13.32249417 52.89251228 -8.77374172 34.46976918 -4.2421875 15.95703125 C-4.04644638 15.15700684 -3.85070526 14.35698242 -3.64903259 13.53271484 C-2.52617868 8.99142276 -1.31312216 4.49004265 0 0 Z " fill="#040301" transform="translate(437,150)"/>
<path d="M0 0 C8.45237885 5.34839792 8.45237885 5.34839792 9.734375 9.21484375 C9.82203125 9.80394531 9.9096875 10.39304687 10 11 C9.06994141 10.67515625 9.06994141 10.67515625 8.12109375 10.34375 C-0.96181696 7.48798768 -11.31462975 6.14867394 -20.5625 9.125 C-24.49159256 11.2681414 -27.73305594 13.04927503 -30 17 C-30.82088957 20.51096689 -30.93662362 23.50567343 -30 27 C-27.15269289 29.56680314 -27.15269289 29.56680314 -24 31 C-24 31.66 -24 32.32 -24 33 C-31.90497898 32.96636179 -37.87921518 31.12671575 -44 26 C-47.83330837 21.38619843 -48.71620299 16.22060184 -48.4453125 10.32421875 C-47.34071588 4.55899954 -42.43334124 1.32530692 -37.94140625 -1.921875 C-26.42994713 -8.31455652 -11.10099912 -6.00054006 0 0 Z " fill="#070603" transform="translate(273,107)"/>
<path d="M0 0 C0.33 0 0.66 0 1 0 C1.07347656 1.80984375 1.07347656 1.80984375 1.1484375 3.65625 C1.22353532 5.27085306 1.29908003 6.88543539 1.375 8.5 C1.4059375 9.29148438 1.436875 10.08296875 1.46875 10.8984375 C2.10071968 23.74848764 6.43715197 35.71662354 15.9921875 44.65625 C21.46861 48.92359221 27.41976953 52.45385615 33.328125 56.0859375 C53.62207485 68.61659439 65.93527605 84.15048357 75 106 C75 106.99 75 107.98 75 109 C73.1184082 108.70068359 73.1184082 108.70068359 71 108 C69.55047098 105.54327247 68.35370583 103.21097285 67.1875 100.625 C66.48880244 99.15673909 65.78564269 97.69059361 65.078125 96.2265625 C64.72943359 95.50500977 64.38074219 94.78345703 64.02148438 94.04003906 C56.1430854 78.30583691 44.47180005 68.65851676 29.875 59.4375 C15.25355577 50.19837874 3.62579795 39.8657716 -0.625 22.4375 C-1.44316098 14.93769106 -1.35010491 7.42557703 0 0 Z " fill="#B4954C" transform="translate(95,142)"/>
<path d="M0 0 C-6.28440193 7.12232219 -15.63215755 12.90696843 -25.1328125 14.31640625 C-28.55220766 14.51198051 -30.65834229 14.21666099 -33.5625 12.375 C-35 10 -35 10 -35.125 7.0625 C-33.70146752 3.18732824 -31.50623513 1.02876498 -28 -1 C-18.912072 -4.66840413 -8.77927887 -4.21405386 0 0 Z " fill="#040302" transform="translate(280,121)"/>
<path d="M0 0 C1.46373047 0.02707031 1.46373047 0.02707031 2.95703125 0.0546875 C3.69308594 0.07789062 4.42914063 0.10109375 5.1875 0.125 C5.5175 1.115 5.8475 2.105 6.1875 3.125 C5.39085937 3.22296875 4.59421875 3.3209375 3.7734375 3.421875 C-3.65668289 4.4704078 -8.61380963 5.66992605 -13.859375 11.3359375 C-16.10873422 14.54802246 -16.78921423 17.10973546 -17.5625 20.9375 C-17.80484375 22.09894531 -18.0471875 23.26039063 -18.296875 24.45703125 C-18.46703125 25.33746094 -18.6371875 26.21789062 -18.8125 27.125 C-20.1325 26.795 -21.4525 26.465 -22.8125 26.125 C-22.64096292 17.64171166 -21.3265372 11.76936373 -15.32421875 5.59375 C-10.53471297 1.33641153 -6.33585555 -0.15267122 0 0 Z " fill="#B0924A" transform="translate(255.8125,105.875)"/>
<path d="M0 0 C1.83415944 1.58385062 3.38848056 3.18054256 5 5 C4.67 5.66 4.34 6.32 4 7 C3.16597656 6.38511719 2.33195312 5.77023438 1.47265625 5.13671875 C0.33636578 4.31971651 -0.80037773 3.50334412 -1.9375 2.6875 C-2.48212891 2.28337891 -3.02675781 1.87925781 -3.58789062 1.46289062 C-11.15879337 -3.91988994 -18.50322586 -5.48568306 -27.6875 -5.25 C-28.91049805 -5.24226563 -28.91049805 -5.24226563 -30.15820312 -5.234375 C-33.6961765 -5.18861302 -36.97007724 -5.00522889 -40.46484375 -4.39453125 C-41.30144531 -4.26433594 -42.13804687 -4.13414063 -43 -4 C-44.875 -5.4375 -44.875 -5.4375 -46 -7 C-30.8158654 -9.98388699 -12.91605717 -9.21041083 0 0 Z " fill="#382E17" transform="translate(287,90)"/>
<path d="M0 0 C0.33 0 0.66 0 1 0 C1.07347656 1.80984375 1.07347656 1.80984375 1.1484375 3.65625 C1.22353532 5.27085306 1.29908003 6.88543539 1.375 8.5 C1.4059375 9.29148438 1.436875 10.08296875 1.46875 10.8984375 C1.72912965 16.19282379 2.5605264 20.89641177 4 26 C4.20882812 26.763125 4.41765625 27.52625 4.6328125 28.3125 C4.79523438 28.869375 4.95765625 29.42625 5.125 30 C5.41375 30.99 5.7025 31.98 6 33 C5.01 33 4.02 33 3 33 C-1.31244294 22.12514389 -2.10057188 11.55314532 0 0 Z " fill="#A18644" transform="translate(95,142)"/>
<path d="M0 0 C7.35425762 0.55156932 13.17868719 4.57602308 18 10 C17.67 10.66 17.34 11.32 17 12 C14.91598726 10.56347677 12.83277356 9.12581793 10.75 7.6875 C10.16347656 7.28337891 9.57695312 6.87925781 8.97265625 6.46289062 C5.93657405 4.36492371 2.93149825 2.24216079 0 0 Z " fill="#18140A" transform="translate(274,85)"/>
<path d="M0 0 C1.79570284 2.66125745 2.03345719 3.78111062 1.5390625 7.015625 C1.08660156 8.61664063 1.08660156 8.61664063 0.625 10.25 C0.32851563 11.32765625 0.03203125 12.4053125 -0.2734375 13.515625 C-0.51320313 14.33546875 -0.75296875 15.1553125 -1 16 C-3 13 -3 13 -2.5390625 9.86328125 C-2.23742187 8.69152344 -1.93578125 7.51976562 -1.625 6.3125 C-1.32851563 5.13300781 -1.03203125 3.95351562 -0.7265625 2.73828125 C-0.48679687 1.83464844 -0.24703125 0.93101562 0 0 Z " fill="#2E2714" transform="translate(426,169)"/>
</svg>
