<?xml version="1.0" encoding="UTF-8"?>
<svg version="1.1" xmlns="http://www.w3.org/2000/svg" width="308" height="544">
<path d="M0 0 C101.64 0 203.28 0 308 0 C308 179.52 308 359.04 308 544 C206.36 544 104.72 544 0 544 C0 364.48 0 184.96 0 0 Z " fill="#000000" transform="translate(0,0)"/>
<path d="M0 0 C3.2109375 1.20703125 3.2109375 1.20703125 6.375 2.8125 C10.1909816 4.69423404 13.76947017 6.32675734 17.875 7.4375 C25.23916963 9.75734831 29.30408912 15.94033504 32.95703125 22.3984375 C33.91846402 24.16984094 33.91846402 24.16984094 36 25 C37.6660088 25.07809416 39.3329034 25.13777127 41 25.1875 C46.56101204 25.6381964 50.04617952 27.38722618 54.640625 30.4453125 C56.85325841 31.90330604 59.04367891 33.06048204 61.4375 34.1875 C66.39190328 36.70816132 68.07822585 38.61770397 69.9375 43.8125 C71.12201902 46.96214063 72.13280766 49.18358705 74.125 51.9375 C76.85493874 56.39639993 77.39705593 60.86026946 78 66 C78.12761719 67.05767578 78.12761719 67.05767578 78.2578125 68.13671875 C78.56770045 73.22921079 76.99471005 77.15169207 74.97265625 81.703125 C74.0666987 83.84249464 73.28482165 85.69196248 73 88 C73.763125 88.70125 74.52625 89.4025 75.3125 90.125 C79.02830987 94.10005242 79.35414805 97.73120775 80 103 C80.185625 104.051875 80.37125 105.10375 80.5625 106.1875 C79.64583663 110.77081684 76.74274888 113.35002452 73 116 C70.671875 116.828125 70.671875 116.828125 68.3125 117.4375 C64.96366246 118.31897915 64.96366246 118.31897915 62.75 120.84765625 C62.13303938 122.26409501 61.53726734 123.68998418 60.96484375 125.125 C59.41676951 128.13340338 57.08322546 128.92757375 54 130 C53.34 130 52.68 130 52 130 C52.495 130.680625 52.99 131.36125 53.5 132.0625 C55.37858915 135.74140375 55.50238846 137.9091225 55 142 C49.81272359 152.16706176 40.45073765 156.25572521 30.125 159.625 C29.04605469 159.95371094 29.04605469 159.95371094 27.9453125 160.2890625 C25.72280326 161.01479363 25.72280326 161.01479363 23 163 C17.87008502 163.96122667 14.0606718 163.38217144 9.75 160.4375 C9.09515625 159.97859375 8.4403125 159.5196875 7.765625 159.046875 C5.9817406 157.76131229 5.9817406 157.76131229 3.5 158.1875 C2.675 158.455625 1.85 158.72375 1 159 C-5.69139966 159.75548061 -5.69139966 159.75548061 -8.89453125 157.90625 C-13.06090922 154.49326935 -16.04723931 150.47387983 -19 146 C-19.15855469 146.64324219 -19.31710938 147.28648437 -19.48046875 147.94921875 C-25.43989932 171.02966532 -37.34300333 188.72539808 -52.69482422 206.47265625 C-54.71790109 208.84010274 -56.66855688 211.26491305 -58.625 213.6875 C-61.41977391 217.13026574 -64.29595524 220.43808015 -67.3125 223.6875 C-81.83749601 239.74806752 -93.35177057 258.33563744 -103.0625 277.625 C-103.50343994 278.50043457 -103.94437988 279.37586914 -104.39868164 280.27783203 C-107.38555925 286.3718254 -109.79554436 292.58382941 -112 299 C-111.43224854 298.51426514 -110.86449707 298.02853027 -110.27954102 297.52807617 C-106.00506836 293.91485359 -102.06760558 291.46164366 -96.8125 289.5 C-92.0146772 287.64588529 -89.80505639 286.02155553 -86.8046875 281.96484375 C-79.24878609 273.73839697 -66.84285662 267.92648239 -56 266 C-55.32582031 265.87496094 -54.65164062 265.74992187 -53.95703125 265.62109375 C-46.60575396 264.99174943 -41.13174541 267.98511379 -34.68261719 271.0793457 C-29.46105398 273.52715785 -25.30989922 274.53022184 -19.51953125 274.69921875 C-13.4329666 275.42583189 -8.18112125 278.71663869 -4 283.09375 C5.56630295 295.90576288 12.08252565 313.17063725 14 329 C6.72182182 328.45892687 -0.20835737 327.20329092 -7.3125 325.5625 C-13.67038701 324.13229319 -19.98690932 322.74911972 -26.4375 321.8125 C-40.4755948 319.76527784 -51.40521655 314.37488457 -62.38110352 305.56591797 C-66.98354884 301.90508999 -71.58399519 299.2502516 -77 297 C-77.92941406 296.60941406 -78.85882813 296.21882813 -79.81640625 295.81640625 C-85.95210809 293.40386498 -91.11980757 291.43838646 -97.54296875 294.0234375 C-101.55480415 295.93383531 -104.99429998 297.67226069 -108 301 C-107.42894531 301.10957031 -106.85789062 301.21914063 -106.26953125 301.33203125 C-85.34428695 305.42393117 -66.373924 310.03495118 -52 327 C-47.71286086 333.3867631 -47.18094324 339.42372495 -48 347 C-50.82051943 357.14523571 -57.44682576 371.44682576 -65 379 C-65.99 379 -66.98 379 -68 379 C-69.2265625 377.015625 -69.2265625 377.015625 -70.625 374.25 C-74.49132877 367.81715748 -79.54790198 364.41418757 -85.71362305 360.29003906 C-99.11755722 351.31386183 -99.11755722 351.31386183 -102 344 C-103.1792853 335.86913818 -101.35646153 329.69097792 -98.1796875 322.26953125 C-96.37063712 317.25570619 -96.10493227 312.29431013 -96 307 C-98.39574961 306.69563433 -100.78544825 306.43105687 -103.1875 306.1875 C-103.86103516 306.09791016 -104.53457031 306.00832031 -105.22851562 305.91601562 C-109.15072798 305.5524935 -110.71715549 305.7800527 -113.86328125 308.2265625 C-122.20751783 319.05729005 -124.53376202 336.09525876 -127.1875 349.25 C-127.3421875 350.01618652 -127.496875 350.78237305 -127.65625 351.57177734 C-128.55832255 356.22823662 -129.28118817 360.89192322 -129.93359375 365.58984375 C-131.82825321 379.13304874 -134.43892304 392.56948447 -137 406 C-137.16725586 406.88123535 -137.33451172 407.7624707 -137.50683594 408.67041016 C-144.45254557 444.17694196 -158.71984383 482.3782434 -181 511 C-181.52464844 511.77988281 -182.04929687 512.55976562 -182.58984375 513.36328125 C-183.05519531 513.90339844 -183.52054688 514.44351563 -184 515 C-184.99 515 -185.98 515 -187 515 C-186.43300509 510.82853743 -183.96407485 508.00384243 -181.5 504.75 C-168.63473257 487.20666394 -159.62802292 467.30672146 -152.9375 446.6875 C-152.68165131 445.90544189 -152.42580261 445.12338379 -152.16220093 444.31762695 C-143.88939444 418.95387791 -138.64273542 393.5736352 -134.37036133 367.26367188 C-131.23986084 348.17536656 -127.52603951 329.00782394 -121.1875 310.6875 C-120.85403564 309.70934326 -120.52057129 308.73118652 -120.17700195 307.72338867 C-115.70040304 294.90446225 -110.083951 282.76162924 -103.60009766 270.84375 C-93.9120388 252.98770507 -93.1070193 238.88924231 -96 219 C-100.95 218.67 -105.9 218.34 -111 218 C-109.05301866 226.28192482 -109.05301866 226.28192482 -106.3125 234.3125 C-103.2808503 243.39106181 -103.85254457 252.59887436 -107.8125 261.25 C-113.94230864 272.15835686 -123.26734673 279.34622688 -133.0546875 286.75 C-141.6516884 293.31747018 -145.57503175 300.30272914 -150 310 C-150.99 310 -151.98 310 -153 310 C-153.14695313 308.90042969 -153.29390625 307.80085938 -153.4453125 306.66796875 C-154.81737353 297.3116577 -156.82636315 290.05943428 -162 282 C-167.58462317 272.53970939 -170.54300293 264.16896733 -169 253 C-165.32385453 240.32437947 -158.33822189 229.03012624 -147 222 C-146.05447266 221.39671875 -146.05447266 221.39671875 -145.08984375 220.78125 C-139.43602368 217.73101952 -133.73424809 217.56980432 -127.44726562 217.36425781 C-121.93554492 217.15823483 -117.0519421 216.14680162 -111.73828125 214.6328125 C-107.48505085 213.64989763 -103.33667453 213.74095086 -99 214 C-99.7631861 212.39218107 -100.53587058 210.78886862 -101.3125 209.1875 C-101.74175781 208.29417969 -102.17101562 207.40085938 -102.61328125 206.48046875 C-103.90745547 204.16553739 -104.88044234 202.58167996 -107 201 C-110.30435606 201.23188464 -113.02141281 201.51070641 -116 203 C-121.67694145 203.72251982 -124.60912272 202.89970433 -129.5625 200 C-133.97599255 197.44673985 -136.81016988 195.82494412 -142 197 C-144.87791049 198.7517716 -147.39711075 200.86948695 -150 203 C-151.52586743 204.10547538 -153.06775018 205.18918888 -154.625 206.25 C-155.31851563 206.72953125 -156.01203125 207.2090625 -156.7265625 207.703125 C-164.27941709 212.01162624 -172.90023032 212.25181771 -181.23046875 210.20703125 C-184.98764558 208.96416287 -188.64724979 207.54520624 -192.31640625 206.06640625 C-196.37431244 204.4571038 -199.62107837 203.38898768 -204 204 C-205.68798827 205.43750191 -205.68798827 205.43750191 -207 207 C-207.99 207 -208.98 207 -210 207 C-210.8183567 200.78048905 -208.30023242 196.08718753 -205 191 C-200.3890203 185.40840471 -195.84508791 183.39640488 -188.9140625 181.7734375 C-179.50210128 179.27535664 -172.78813243 174.24761466 -165.94384766 167.62011719 C-158.2283996 160.1986571 -150.28561485 153.36428074 -139.25 152.8125 C-129.23185849 153.01886621 -121.21377076 156.30670894 -113.73046875 163.04296875 C-105.10412035 172.08543043 -103.47337418 181.54884839 -102.12573242 193.60058594 C-101.55336325 198.41747566 -101.01511117 202.01604424 -98 206 C-93.66437068 198.64491455 -93.6597016 191.67205274 -94.06054688 183.39746094 C-94.33572076 175.91800067 -92.96237827 169.97160138 -88.8125 163.6875 C-84.38071652 159.45268467 -80.38247136 157.36342783 -74.3125 156.4375 C-67.04568966 156.83961599 -58.96560307 160.04202351 -53.5 164.8125 C-48.88698274 168.56864637 -42.59663265 167.3787195 -37 167 C-37.45495569 172.02652663 -38.78738751 174.44824262 -42.125 178.1875 C-45.33661075 181.91744034 -48.09447502 185.59112423 -50.625 189.8125 C-54.23632024 195.67775328 -58.52078547 200.35856519 -65 203 C-72.76750586 204.00603239 -79.3448827 202.61768213 -86.6015625 199.875 C-88.88763478 198.88575811 -88.88763478 198.88575811 -91 199 C-93.62943686 204.51029397 -95.80199591 209.08771233 -93.875 215.125 C-93.2675781 216.75665212 -92.64338592 218.38219143 -92 220 C-89.10631681 228.73241673 -89.82374576 237.92290678 -90 247 C-89.41734375 246.15179688 -88.8346875 245.30359375 -88.234375 244.4296875 C-82.44507275 236.10651672 -76.22119802 228.35829204 -69.53222656 220.74560547 C-45.40951377 193.60416241 -45.40951377 193.60416241 -28 162 C-27.67257813 161.23558594 -27.34515625 160.47117188 -27.0078125 159.68359375 C-24.42983928 153.01769156 -24.29204783 146.07964232 -24 139 C-24.78375 138.690625 -25.5675 138.38125 -26.375 138.0625 C-29 137 -29 137 -31 136 C-34.32912793 136.00738985 -37.64477511 136.07638883 -40.97070312 136.21484375 C-45.55079626 136.30805564 -48.38677767 135.87187727 -52 133 C-52.66 132.01 -53.32 131.02 -54 130 C-55.97568377 129.13170586 -57.96015721 128.55576636 -60.02734375 127.94140625 C-62.63339439 126.69772664 -63.54734642 125.49449843 -65 123 C-65.84375 119.9765625 -65.84375 119.9765625 -66.5 116.625 C-67.27131222 112.95208466 -67.89860062 110.18777663 -69.6875 106.875 C-71.81953438 102.20482944 -71.9286406 98.0306491 -71 93 C-69.8758475 90.40017765 -68.52930838 87.930414 -67.1875 85.4375 C-64.53946267 80.56182312 -64.53946267 80.56182312 -64.578125 75.13671875 C-65.89635768 72.60388936 -65.89635768 72.60388936 -67.5234375 70.2734375 C-69.09739123 67.85004843 -69.58357307 66.07660797 -70.0625 63.25 C-70.65666814 59.96188504 -71.14786168 58.78255636 -73.125 55.875 C-75.56779289 52.12938424 -75.8343075 50.39907593 -75 46 C-73.49195824 43.83551653 -71.82760694 42.01202376 -69.98828125 40.12109375 C-67.94028307 37.93629412 -66.32723367 35.64716786 -64.625 33.1875 C-60.98941742 28.54292314 -57.84346845 26.7459747 -52 26 C-46.98326657 25.78950769 -42.01969777 25.82143368 -37 26 C-36.76023438 25.28714844 -36.52046875 24.57429688 -36.2734375 23.83984375 C-32.2285789 14.81956093 -24.49274842 9.09282976 -15.69140625 5.21484375 C-13.40374859 4.18224356 -11.65799838 3.14359742 -9.6875 1.625 C-6.17121382 -0.50112652 -4.0757157 -0.30301132 0 0 Z " fill="#B1934B" transform="translate(219,22)"/>
<path d="M0 0 C10.30827903 9.27922536 12.38839988 19.31271666 13.87426758 32.60058594 C14.44663675 37.41747566 14.98488883 41.01604424 18 45 C22.33562932 37.64491455 22.3402984 30.67205274 21.93945312 22.39746094 C21.66427924 14.91800067 23.03762173 8.97160138 27.1875 2.6875 C31.61928348 -1.54731533 35.61752864 -3.63657217 41.6875 -4.5625 C48.95431034 -4.16038401 57.03439693 -0.95797649 62.5 3.8125 C67.11301726 7.56864637 73.40336735 6.3787195 79 6 C78.54504431 11.02652663 77.21261249 13.44824262 73.875 17.1875 C70.66338925 20.91744034 67.90552498 24.59112423 65.375 28.8125 C61.76367976 34.67775328 57.47921453 39.35856519 51 42 C43.23249414 43.00603239 36.6551173 41.61768213 29.3984375 38.875 C27.11236522 37.88575811 27.11236522 37.88575811 25 38 C22.37056314 43.51029397 20.19800409 48.08771233 22.125 54.125 C22.7324219 55.75665212 23.35661408 57.38219143 24 59 C26.89368319 67.73241673 26.17625424 76.92290678 26 86 C26.58265625 85.15179688 27.1653125 84.30359375 27.765625 83.4296875 C33.55492725 75.10651672 39.77880198 67.35829204 46.46777344 59.74560547 C69.67325289 33.7155015 69.67325289 33.7155015 86.84375 3.609375 C88 1 88 1 90 -2 C90.66 -2 91.32 -2 92 -2 C91.50424741 3.31745586 90.16755232 7.37403278 87.5625 12.0625 C87.20905518 12.70880371 86.85561035 13.35510742 86.49145508 14.02099609 C80.05818306 25.50169738 71.88690626 35.55186656 63.30517578 45.47265625 C61.28209891 47.84010274 59.33144312 50.26491305 57.375 52.6875 C54.58022609 56.13026574 51.70404476 59.43808015 48.6875 62.6875 C34.16250399 78.74806752 22.64822943 97.33563744 12.9375 116.625 C12.49656006 117.50043457 12.05562012 118.37586914 11.60131836 119.27783203 C8.61444075 125.3718254 6.20445564 131.58382941 4 138 C4.56775146 137.51426514 5.13550293 137.02853027 5.72045898 136.52807617 C9.99493164 132.91485359 13.93239442 130.46164366 19.1875 128.5 C23.9853228 126.64588529 26.19494361 125.02155553 29.1953125 120.96484375 C36.75121391 112.73839697 49.15714338 106.92648239 60 105 C60.67417969 104.87496094 61.34835938 104.74992187 62.04296875 104.62109375 C69.39424604 103.99174943 74.86825459 106.98511379 81.31738281 110.0793457 C86.53894602 112.52715785 90.69010078 113.53022184 96.48046875 113.69921875 C102.5670334 114.42583189 107.81887875 117.71663869 112 122.09375 C121.56630295 134.90576288 128.08252565 152.17063725 130 168 C122.72182182 167.45892687 115.79164263 166.20329092 108.6875 164.5625 C102.32961299 163.13229319 96.01309068 161.74911972 89.5625 160.8125 C75.5244052 158.76527784 64.59478345 153.37488457 53.61889648 144.56591797 C49.01645116 140.90508999 44.41600481 138.2502516 39 136 C38.07058594 135.60941406 37.14117187 135.21882812 36.18359375 134.81640625 C30.04789191 132.40386498 24.88019243 130.43838646 18.45703125 133.0234375 C14.44519585 134.93383531 11.00570002 136.67226069 8 140 C8.57105469 140.10957031 9.14210938 140.21914063 9.73046875 140.33203125 C30.65571305 144.42393117 49.626076 149.03495118 64 166 C68.28713914 172.3867631 68.81905676 178.42372495 68 186 C65.17948057 196.14523571 58.55317424 210.44682576 51 218 C50.01 218 49.02 218 48 218 C46.7734375 216.015625 46.7734375 216.015625 45.375 213.25 C41.50867123 206.81715748 36.45209802 203.41418757 30.28637695 199.29003906 C16.88244278 190.31386183 16.88244278 190.31386183 14 183 C12.8207147 174.86913818 14.64353847 168.69097792 17.8203125 161.26953125 C19.62936288 156.25570619 19.89506773 151.29431013 20 146 C17.60425039 145.69563433 15.21455175 145.43105687 12.8125 145.1875 C12.13896484 145.09791016 11.46542969 145.00832031 10.77148438 144.91601562 C6.84927202 144.5524935 5.28284451 144.7800527 2.13671875 147.2265625 C-6.20751783 158.05729005 -8.53376202 175.09525876 -11.1875 188.25 C-11.3421875 189.01618652 -11.496875 189.78237305 -11.65625 190.57177734 C-12.55832255 195.22823662 -13.28118817 199.89192322 -13.93359375 204.58984375 C-15.82825321 218.13304874 -18.43892304 231.56948447 -21 245 C-21.16725586 245.88123535 -21.33451172 246.7624707 -21.50683594 247.67041016 C-28.45254557 283.17694196 -42.71984383 321.3782434 -65 350 C-65.52464844 350.77988281 -66.04929687 351.55976562 -66.58984375 352.36328125 C-67.05519531 352.90339844 -67.52054688 353.44351562 -68 354 C-68.99 354 -69.98 354 -71 354 C-70.43300509 349.82853743 -67.96407485 347.00384243 -65.5 343.75 C-52.63473257 326.20666394 -43.62802292 306.30672146 -36.9375 285.6875 C-36.68165131 284.90544189 -36.42580261 284.12338379 -36.16220093 283.31762695 C-27.88939444 257.95387791 -22.64273542 232.5736352 -18.37036133 206.26367188 C-15.23986084 187.17536656 -11.52603951 168.00782394 -5.1875 149.6875 C-4.85403564 148.70934326 -4.52057129 147.73118652 -4.17700195 146.72338867 C0.29959696 133.90446225 5.916049 121.76162924 12.39990234 109.84375 C22.0879612 91.98770507 22.8929807 77.88924231 20 58 C15.05 57.67 10.1 57.34 5 57 C6.94698134 65.28192482 6.94698134 65.28192482 9.6875 73.3125 C12.7191497 82.39106181 12.14745543 91.59887436 8.1875 100.25 C2.05769136 111.15835686 -7.26734673 118.34622688 -17.0546875 125.75 C-25.6516884 132.31747018 -29.57503175 139.30272914 -34 149 C-34.99 149 -35.98 149 -37 149 C-37.14695313 147.90042969 -37.29390625 146.80085937 -37.4453125 145.66796875 C-38.81737353 136.3116577 -40.82636315 129.05943428 -46 121 C-51.58462317 111.53970939 -54.54300293 103.16896733 -53 92 C-49.32385453 79.32437947 -42.33822189 68.03012624 -31 61 C-30.05447266 60.39671875 -30.05447266 60.39671875 -29.08984375 59.78125 C-23.43602368 56.73101952 -17.73424809 56.56980432 -11.44726562 56.36425781 C-5.93554492 56.15823483 -1.0519421 55.14680162 4.26171875 53.6328125 C8.51494915 52.64989763 12.66332547 52.74095086 17 53 C16.2368139 51.39218107 15.46412942 49.78886862 14.6875 48.1875 C14.25824219 47.29417969 13.82898438 46.40085938 13.38671875 45.48046875 C12.09254453 43.16553739 11.11955766 41.58167996 9 40 C5.69564394 40.23188464 2.97858719 40.51070641 0 42 C-5.67694145 42.72251982 -8.60912272 41.89970433 -13.5625 39 C-17.97599255 36.44673985 -20.81016988 34.82494412 -26 36 C-28.87791049 37.7517716 -31.39711075 39.86948695 -34 42 C-35.52586743 43.10547538 -37.06775018 44.18918888 -38.625 45.25 C-39.31851563 45.72953125 -40.01203125 46.2090625 -40.7265625 46.703125 C-48.27941709 51.01162624 -56.90023032 51.25181771 -65.23046875 49.20703125 C-68.98764558 47.96416287 -72.64724979 46.54520624 -76.31640625 45.06640625 C-80.37431244 43.4571038 -83.62107837 42.38898768 -88 43 C-89.68798827 44.43750191 -89.68798827 44.43750191 -91 46 C-91.99 46 -92.98 46 -94 46 C-94.8183567 39.78048905 -92.30023242 35.08718753 -89 30 C-84.3890203 24.40840471 -79.84508791 22.39640488 -72.9140625 20.7734375 C-63.50210128 18.27535664 -56.78813243 13.24761466 -49.94384766 6.62011719 C-34.84266236 -7.90565541 -18.07698702 -13.59412711 0 0 Z " fill="#B2934B" transform="translate(103,183)"/>
<path d="M0 0 C1 3 1 3 0.16723633 5.18554688 C-0.27338135 6.02150391 -0.71399902 6.85746094 -1.16796875 7.71875 C-1.64943359 8.65203125 -2.13089844 9.5853125 -2.62695312 10.546875 C-3.14193359 11.52140625 -3.65691406 12.4959375 -4.1875 13.5 C-8.04898788 20.85138914 -11.35969385 28.11848911 -14 36 C-13.1483728 35.27139771 -13.1483728 35.27139771 -12.27954102 34.52807617 C-8.00506836 30.91485359 -4.06760558 28.46164366 1.1875 26.5 C5.9853228 24.64588529 8.19494361 23.02155553 11.1953125 18.96484375 C18.75121391 10.73839697 31.15714338 4.92648239 42 3 C42.67417969 2.87496094 43.34835938 2.74992187 44.04296875 2.62109375 C51.39424604 1.99174943 56.86825459 4.98511379 63.31738281 8.0793457 C68.53894602 10.52715785 72.69010078 11.53022184 78.48046875 11.69921875 C84.5670334 12.42583189 89.81887875 15.71663869 94 20.09375 C103.56630295 32.90576288 110.08252565 50.17063725 112 66 C104.72182182 65.45892687 97.79164263 64.20329092 90.6875 62.5625 C84.32961299 61.13229319 78.01309068 59.74911972 71.5625 58.8125 C57.5244052 56.76527784 46.59478345 51.37488457 35.61889648 42.56591797 C31.01645116 38.90508999 26.41600481 36.2502516 21 34 C20.07058594 33.60941406 19.14117187 33.21882813 18.18359375 32.81640625 C12.04789191 30.40386498 6.88019243 28.43838646 0.45703125 31.0234375 C-3.55480415 32.93383531 -6.99429998 34.67226069 -10 38 C-9.42894531 38.10957031 -8.85789062 38.21914063 -8.26953125 38.33203125 C12.65571305 42.42393117 31.626076 47.03495118 46 64 C50.28713914 70.3867631 50.81905676 76.42372495 50 84 C47.17948057 94.14523571 40.55317424 108.44682576 33 116 C32.01 116 31.02 116 30 116 C28.7734375 114.015625 28.7734375 114.015625 27.375 111.25 C23.50867123 104.81715748 18.45209802 101.41418757 12.28637695 97.29003906 C-1.11755722 88.31386183 -1.11755722 88.31386183 -4 81 C-5.1792853 72.86913818 -3.35646153 66.69097792 -0.1796875 59.26953125 C1.62936288 54.25570619 1.89506773 49.29431013 2 44 C-0.39574961 43.69563433 -2.78544825 43.43105687 -5.1875 43.1875 C-5.86103516 43.09791016 -6.53457031 43.00832031 -7.22851562 42.91601562 C-11.15072798 42.5524935 -12.71715549 42.7800527 -15.86328125 45.2265625 C-24.20751783 56.05729005 -26.53376202 73.09525876 -29.1875 86.25 C-29.41953125 87.39927979 -29.41953125 87.39927979 -29.65625 88.57177734 C-30.55832255 93.22823662 -31.28118817 97.89192322 -31.93359375 102.58984375 C-33.82825321 116.13304874 -36.43892304 129.56948447 -39 143 C-39.16725586 143.88123535 -39.33451172 144.7624707 -39.50683594 145.67041016 C-46.45254557 181.17694196 -60.71984383 219.3782434 -83 248 C-83.52464844 248.77988281 -84.04929687 249.55976562 -84.58984375 250.36328125 C-85.05519531 250.90339844 -85.52054688 251.44351563 -86 252 C-86.99 252 -87.98 252 -89 252 C-88.43300509 247.82853743 -85.96407485 245.00384243 -83.5 241.75 C-70.63473257 224.20666394 -61.62802292 204.30672146 -54.9375 183.6875 C-54.68165131 182.90544189 -54.42580261 182.12338379 -54.16220093 181.31762695 C-45.88939444 155.95387791 -40.64273542 130.5736352 -36.37036133 104.26367188 C-33.23974357 85.17465153 -29.52378208 66.00915501 -23.1875 47.6875 C-22.69165405 46.22787842 -22.69165405 46.22787842 -22.18579102 44.73876953 C-18.74767311 34.86853616 -14.52655139 25.41160071 -10 16 C-9.6601709 15.27941406 -9.3203418 14.55882812 -8.97021484 13.81640625 C-3.57602021 2.38401347 -3.57602021 2.38401347 0 0 Z " fill="#B1934B" transform="translate(121,285)"/>
<path d="M0 0 C6.52576241 4.7681072 12.77352578 9.8494239 19 15 C18.01 15.495 18.01 15.495 17 16 C14.1796875 14.78515625 14.1796875 14.78515625 10.875 13.0625 C9.77929688 12.49660156 8.68359375 11.93070313 7.5546875 11.34765625 C6.71164063 10.90292969 5.86859375 10.45820312 5 10 C5 10.99 5 11.98 5 13 C6.09248047 13.41378906 6.09248047 13.41378906 7.20703125 13.8359375 C13.74912947 16.56257424 19.46707708 20.45420972 24.875 25 C41.49655304 38.4349056 65.20705377 43.00918047 86.0625 44.9375 C96.28281351 45.99440716 105.46351085 47.46351085 113 55 C112.9234775 59.05569273 112.51616926 61.33865814 110 64.5625 C103.41514149 69.91269754 97.88232465 73.47950689 89.48046875 75.26171875 C86.77110086 76.06812904 85.21781583 77.28937698 83 79 C79.6262826 79.51903345 77.16986637 79.76530905 74.2265625 77.83984375 C73.61554688 77.37707031 73.00453125 76.91429687 72.375 76.4375 C67.64697634 73.1066027 63.53578263 74.05674621 58.05078125 74.99609375 C55 75 55 75 52.34765625 73.37109375 C49.93031554 70.92961985 48.04609706 68.47077448 46.125 65.625 C41.76292478 59.47209165 37.41355037 54.23983862 30 52 C27.54027883 52.01090785 25.0802038 52.10059612 22.625 52.25 C18.01195857 52.40387915 14.53959956 52.47657995 11 49.1875 C10.50113281 48.63964844 10.00226563 48.09179688 9.48828125 47.52734375 C7.07472869 45.05044336 4.18736177 44.24994579 1 43 C-1.62050831 40.37949169 -1.70741603 38.36329695 -2.4375 34.75 C-3.24323336 31.00909511 -3.97035843 28.05928315 -5.6875 24.625 C-8.10808337 19.78383325 -7.27577223 15.43398488 -5.75 10.4375 C-4.33665065 6.48823675 -2.49689047 3.35788719 0 0 Z " fill="#010100" transform="translate(158,103)"/>
<path d="M0 0 C1.15242188 0.01804688 2.30484375 0.03609375 3.4921875 0.0546875 C4.36101562 0.07789063 5.22984375 0.10109375 6.125 0.125 C5.92003906 0.83785156 5.71507812 1.55070312 5.50390625 2.28515625 C4.01879353 7.56476749 2.73087654 12.67211116 2.125 18.125 C0.475 17.465 -1.175 16.805 -2.875 16.125 C0.37295496 21.33062645 3.94805105 26.21191087 7.74169922 31.02709961 C17.43534252 43.37651648 28.16338746 58.06098376 30.125 74.125 C28.25 76.8125 28.25 76.8125 26.125 79.125 C25.795 79.785 25.465 80.445 25.125 81.125 C19.81144661 80.53460518 17.98706029 78.27830562 14.6015625 74.36328125 C8.85148353 67.74158398 3.04247284 61.54880719 -3.875 56.125 C-13.53528491 48.51882806 -18.86063915 42.50689452 -21.265625 30.25390625 C-21.8383063 27.81613964 -21.8383063 27.81613964 -24.0625 25 C-25.875 22.125 -25.875 22.125 -26 18.5625 C-24.80501225 14.91114855 -23.62185957 13.71448776 -20.55078125 11.515625 C-17.98582295 9.38712814 -16.35326791 6.68194678 -14.5625 3.89453125 C-10.63283459 -0.22615956 -5.37110505 -0.10961439 0 0 Z " fill="#020201" transform="translate(172.875,51.875)"/>
<path d="M0 0 C11.63690476 8.85416667 11.63690476 8.85416667 13.875 14.1875 C12.67529246 14.86956723 11.46464795 15.53240897 10.25 16.1875 C9.57710938 16.55875 8.90421875 16.93 8.2109375 17.3125 C5.17759377 18.44873578 3.10269462 18.54166101 -0.125 18.1875 C-3.53266279 16.56637887 -6.67183415 14.65939951 -9.90625 12.71875 C-13.44512045 11.03520969 -15.26913238 10.5636063 -19.125 11.1875 C-22.01309897 12.92148491 -22.01309897 12.92148491 -24.75 15.3125 C-32.27569827 21.28837256 -40.43808498 27.31669519 -50.484375 26.65234375 C-57.20591385 25.46911428 -63.74241285 23.35709499 -69.9375 20.5 C-73.76468148 18.92410175 -77.01437676 18.54808099 -81.125 18.1875 C-79.04793461 13.68395634 -76.42690624 10.67245998 -72.125 8.1875 C-69.76617081 7.4955068 -67.37934242 6.89634324 -64.98046875 6.359375 C-58.94736247 4.9466458 -53.04665237 3.30150767 -47.15234375 1.390625 C-46.40551331 1.14977173 -45.65868286 0.90891846 -44.88922119 0.6607666 C-41.83270307 -0.32884411 -38.77885389 -1.3262373 -35.7277832 -2.33251953 C-33.45543053 -3.07956173 -31.17927466 -3.81392648 -28.90234375 -4.546875 C-28.22308334 -4.77493835 -27.54382294 -5.00300171 -26.84397888 -5.23797607 C-16.1935822 -8.64249111 -9.19333131 -5.33213216 0 0 Z " fill="#030201" transform="translate(96.125,203.8125)"/>
<path d="M0 0 C9.13572891 27.0305809 9.13572891 27.0305809 3.375 39.375 C-1.87430116 48.66784636 -8.6778471 54.41943672 -17 61 C-25.64672438 67.8485613 -25.64672438 67.8485613 -33 76 C-33.33 76 -33.66 76 -34 76 C-34.19493153 69.92231348 -33.51905433 64.49757226 -32.25 58.5625 C-32.06808105 57.69286621 -31.88616211 56.82323242 -31.69873047 55.92724609 C-31.32214611 54.14310051 -30.94113797 52.35988281 -30.55566406 50.57763672 C-30.04120853 48.19115979 -29.5468153 45.80131222 -29.0546875 43.41015625 C-25.32987833 25.88245444 -19.36085418 12.05119751 -4.35546875 1.43359375 C-2 0 -2 0 0 0 Z " fill="#030201" transform="translate(105,242)"/>
<path d="M0 0 C3.4578502 1.1781171 6.91129558 2.11093335 10.4465332 3.01782227 C27.20068866 7.37059246 35.18600412 15.79180362 43.96484375 30.48046875 C44.85830373 32.03344033 45.73000204 33.60062908 46.53125 35.203125 C43.18654884 34.64743889 39.84273819 34.08688394 36.5 33.51953125 C35.01042342 33.26818913 33.52083979 33.01688878 32.03125 32.765625 C31.23952393 32.63075684 30.44779785 32.49588867 29.63208008 32.35693359 C24.83662562 31.55069087 20.04919211 30.89736902 15.21875 30.328125 C1.59387994 28.39295292 -9.81540127 22.16418114 -20.09375 13.203125 C-26.64272999 7.75981696 -34.57466776 5.13364277 -42.46875 2.203125 C-31.01944382 -5.42974578 -12.29276447 -4.32072415 0 0 Z " fill="#030201" transform="translate(177.46875,310.796875)"/>
<path d="M0 0 C0.66 0.33 1.32 0.66 2 1 C2.43683721 8.74172615 2.1247724 14.52963595 -1.09765625 21.59375 C-3.09409871 26.91759657 -2.53141472 32.05147937 -1.0625 37.4375 C0.06884338 39.86101499 1.25910878 41.25129877 3.203125 43.13671875 C8.87877749 48.82129522 10.5148185 52.27644134 10.6262207 60.26904297 C10.53333378 64.5233351 10.3455261 68.75859325 10 73 C7.89679937 73.50404808 5.79240209 74.00310508 3.6875 74.5 C2.51574219 74.7784375 1.34398437 75.056875 0.13671875 75.34375 C-3 76 -3 76 -6 76 C-6.23074219 74.71351562 -6.46148437 73.42703125 -6.69921875 72.1015625 C-7.90305836 66.70066661 -10.16865862 62.20322285 -12.8125 57.375 C-13.23853516 56.56804687 -13.66457031 55.76109375 -14.10351562 54.9296875 C-16.11476659 51.18103215 -18.15817977 47.71748656 -20.7890625 44.37109375 C-24.79744925 38.92139178 -23.70166698 32.42295162 -23 26 C-21.05562709 16.68747711 -14.82305093 9.5158046 -7.26171875 4.00390625 C-4.8723847 2.50668245 -2.6022573 1.08714341 0 0 Z " fill="#030201" transform="translate(211,48)"/>
<path d="M0 0 C3.85322879 3.21102399 7.5042058 6.46428996 11 10.0625 C13.41541312 12.52454272 15.76017323 14.6442019 18.625 16.5625 C22.86225406 19.47804178 27.15956786 22.91449738 28.55859375 28.05078125 C28.80020656 30.02457209 28.90389355 32.01379997 29 34 C29.28875 34.886875 29.5775 35.77375 29.875 36.6875 C30 39 30 39 28.125 41.625 C24.7561424 44.18533177 22.00582637 45.07919218 18.015625 46.26171875 C15.30092698 47.25605582 14.34041756 48.46810017 13 51 C12.608125 51.845625 12.21625 52.69125 11.8125 53.5625 C9.26256463 56.99172343 6.18280763 58.28211007 2 59 C-2.00638926 58.53689587 -5.80271202 57.55996943 -9.6875 56.5 C-14.72280452 55.20036405 -19.53441698 54.56000623 -24.72265625 54.30859375 C-27 54 -27 54 -30 52 C-24.00807119 46.85692777 -18.4226157 45.08895401 -10.76171875 44.11401367 C-5.93325238 43.44004024 -2.77887453 42.08502958 1 39 C2.18247372 35.45257885 2.23243285 32.19552939 2.25 28.5 C2.25394775 27.78384521 2.25789551 27.06769043 2.26196289 26.32983398 C2.20433632 21.0311598 1.238679 16.53342587 -0.3984375 11.484375 C-1.37490117 7.45170687 -0.73037041 4.05023593 0 0 Z " fill="#020201" transform="translate(266,91)"/>
<path d="M0 0 C4.11053037 1.14555764 7.50224209 2.80608407 11.25390625 4.8046875 C13.69560678 6.00503493 16.01721747 6.8075014 18.625 7.5625 C22.78117075 8.86997726 24.97850588 10.67745147 27.8125 14.0625 C28.27785156 14.58585937 28.74320312 15.10921875 29.22265625 15.6484375 C32.8125 19.74825905 32.8125 19.74825905 32.8125 22.0625 C30.39575776 22.08955308 27.9793206 22.10936438 25.5625 22.125 C24.53962891 22.13756836 24.53962891 22.13756836 23.49609375 22.15039062 C20.06849859 22.16702944 17.11016359 21.92170849 13.8125 21.0625 C0.7274281 19.005042 0.7274281 19.005042 -11.4375 23.0625 C-13.96402584 24.98769031 -13.96402584 24.98769031 -16.1875 27.0625 C-17.17943359 27.90941406 -17.17943359 27.90941406 -18.19140625 28.7734375 C-20.00731402 30.44422953 -21.59670388 32.1774066 -23.1875 34.0625 C-23.744375 34.69414063 -24.30125 35.32578125 -24.875 35.9765625 C-30.07126399 42.64676676 -30.56180009 49.87446149 -31.1875 58.0625 C-35.0108824 54.49400976 -36.90335836 52.10932563 -37.62890625 46.8828125 C-38.04517202 34.17999246 -33.95615266 25.0351744 -25.5 15.375 C-21.60933257 11.2631934 -18.01396491 8.25065654 -12.75 6.125 C-9.77086861 4.87114046 -8.03175245 3.92529383 -5.5625 1.75 C-3.1875 0.0625 -3.1875 0.0625 0 0 Z " fill="#030301" transform="translate(216.1875,24.9375)"/>
<path d="M0 0 C0.68835938 0.01353516 1.37671875 0.02707031 2.0859375 0.04101562 C3.76597001 0.0760163 5.4455935 0.12981046 7.125 0.1875 C5.825625 1.6415625 5.825625 1.6415625 4.5 3.125 C-11.83595955 22.41370341 -16.48573164 48.59451358 -18.875 73.1875 C-20.93258648 71.12991352 -21.54614884 69.83730986 -22.625 67.1875 C-24.13457703 63.6538459 -25.87455015 60.49031578 -27.9375 57.25 C-32.59337423 49.62379589 -35.42059881 41.1697095 -33.875 32.1875 C-29.7546902 19.37362874 -22.76248161 8.58119401 -11.15234375 1.53515625 C-7.32691692 -0.03787385 -4.0557064 -0.15326797 0 0 Z " fill="#030201" transform="translate(86.875,243.8125)"/>
<path d="M0 0 C3.39311395 1.57515198 6.20701211 1.99816111 9.9375 2.1875 C15.4458879 2.51923765 19.23251887 4.09649771 23.375 7.75 C32.42552042 18.0525687 37.57350526 31.47734457 40.375 44.75 C39.88 45.74 39.88 45.74 39.375 46.75 C38.35416667 45.29166667 37.33333333 43.83333333 36.3125 42.375 C35.67183594 41.46363281 35.03117187 40.55226563 34.37109375 39.61328125 C33.09837775 37.78764362 31.83904727 35.95254945 30.59765625 34.10546875 C22.52220535 22.18456504 14.94205196 16.54452335 0.9375 13.1875 C-0.66611932 12.79342323 -2.26899149 12.39629342 -3.87109375 11.99609375 C-4.65983887 11.79951172 -5.44858398 11.60292969 -6.26123047 11.40039062 C-8.63191399 10.74809762 -10.91073275 9.95602388 -13.22265625 9.12109375 C-17.44345402 7.68347226 -21.18632279 7.28567015 -25.625 7.375 C-26.69935303 7.38261353 -26.69935303 7.38261353 -27.79541016 7.39038086 C-34.04275492 7.53245867 -40.07193794 8.48799414 -46.1796875 9.77001953 C-51.34825414 10.84224862 -51.34825414 10.84224862 -54.625 9.75 C-36.66044909 -7.18506375 -22.21673567 -10.84910611 0 0 Z " fill="#050402" transform="translate(187.625,298.25)"/>
<path d="M0 0 C8.27285051 -0.70020992 13.85391983 -0.39553552 20.7265625 4.453125 C22.8931442 5.92729399 24.73269852 6.65351673 27.1875 7.5 C33.28213733 10.38693347 35.45092132 18.20487936 38 24 C38.55171875 24.95390625 39.1034375 25.9078125 39.671875 26.890625 C41.42116011 30.98601014 41.47795066 34.46955492 41.4375 38.875 C41.4674707 40.02162109 41.4674707 40.02162109 41.49804688 41.19140625 C41.49302628 47.10566353 39.94242946 50.88425136 37 56 C31.08266675 51.90338467 26.11818322 47.28795912 21.12597656 42.13964844 C18.83944486 39.7901434 16.74068005 37.82712003 14 36 C13.98828125 32.875 13.98828125 32.875 14.3125 29 C14.57751453 23.39664488 13.9517228 19.96412228 10.1875 15.625 C9.08921875 14.47064453 9.08921875 14.47064453 7.96875 13.29296875 C5.40727104 10.30965893 4.55108008 7.49296664 3.66796875 3.71484375 C3.44753906 3.14894531 3.22710937 2.58304688 3 2 C2.01 1.67 1.02 1.34 0 1 C0 0.67 0 0.34 0 0 Z " fill="#020201" transform="translate(252,51)"/>
<path d="M0 0 C0.66 0.33 1.32 0.66 2 1 C4.11269688 8.15969498 5.780982 17.03562021 3.19140625 24.25390625 C1.0510934 27.39069262 -2.47893519 28.11702529 -6 29 C-8.14348151 29.28885708 -10.28961195 29.55847577 -12.4375 29.8125 C-19.79195099 30.8130474 -24.79887339 33.79887339 -30 39 C-36.6332578 39.75500495 -42.57826117 37.67356735 -48.875 35.75 C-49.93203125 35.44964844 -50.9890625 35.14929688 -52.078125 34.83984375 C-53.08101562 34.53691406 -54.08390625 34.23398438 -55.1171875 33.921875 C-56.03097168 33.64956055 -56.94475586 33.37724609 -57.88623047 33.09667969 C-60 32 -60 32 -60.94189453 30.04394531 C-61 28 -61 28 -58.8125 25.375 C-52.49962066 20.04412412 -46.21938705 19.9431597 -38.20727539 19.76098633 C-26.79420569 19.47125588 -16.30866627 19.00364415 -7.5703125 10.79296875 C-4.6523691 7.46128711 -2.29295026 3.77958834 0 0 Z " fill="#040301" transform="translate(262,104)"/>
<path d="M0 0 C7.70286403 2.39881579 11.2963028 9.80812983 15 16.55859375 C20.62403335 27.29043096 22.32220704 36.52390829 23.125 48.5 C23.21136719 49.70398438 23.29773438 50.90796875 23.38671875 52.1484375 C23.59744278 55.09857397 23.8016943 58.04900717 24 61 C23.25363281 60.23558594 22.50726563 59.47117187 21.73828125 58.68359375 C19.6073064 56.5951776 17.58832512 54.80625719 15.1875 53.0625 C14.15496094 52.30066406 14.15496094 52.30066406 13.1015625 51.5234375 C11.74761345 50.54195027 10.3885828 49.56741629 9.0234375 48.6015625 C-6.23523007 37.59830023 -6.23523007 37.59830023 -7.30859375 31.14453125 C-7.67084342 24.59110543 -5.90227639 19.41438119 -3.22241211 13.53051758 C-1.16428509 8.91999137 -0.43368344 4.97363541 0 0 Z " fill="#030301" transform="translate(127,332)"/>
<path d="M0 0 C8.98086101 6.15243372 12.99201018 12.10578592 15.59765625 22.6015625 C16.26549547 26.26407759 16.29995592 29.58879949 16.08984375 33.30078125 C15.47109375 32.66140625 14.85234375 32.02203125 14.21484375 31.36328125 C13.17486304 30.34073039 12.13287789 29.32021733 11.08984375 28.30078125 C10.04957031 27.24890625 10.04957031 27.24890625 8.98828125 26.17578125 C1.58048298 19.03340898 -8.89846564 11.84016974 -19.66015625 12.01953125 C-23.63685853 12.51661903 -27.3527861 13.8473346 -31.15234375 15.0859375 C-36.09871424 16.68502401 -41.08882879 18.11674739 -46.08544922 19.54956055 C-49.0415309 20.40841742 -51.89272941 21.29327803 -54.72265625 22.51171875 C-56.91015625 23.30078125 -56.91015625 23.30078125 -59.91015625 22.30078125 C-59.30429687 21.97207031 -58.6984375 21.64335937 -58.07421875 21.3046875 C-52.2297271 17.98681455 -47.46371952 14.24501221 -42.55078125 9.6796875 C-29.51233276 -2.06648873 -16.69997291 -9.75099089 0 0 Z " fill="#050402" transform="translate(96.91015625,182.69921875)"/>
<path d="M0 0 C3.875 2.625 3.875 2.625 5 6 C5.13456962 9.21193394 4.94995975 12.4144993 4.8125 15.625 C4.79380859 16.48996094 4.77511719 17.35492188 4.75585938 18.24609375 C4.27361068 29.53240539 -0.93860723 37.82090042 -8.6875 45.75 C-16.57910517 51.79681435 -25.4152291 52.49008148 -35 52 C-34.97474243 51.03344482 -34.97474243 51.03344482 -34.94897461 50.04736328 C-34.1117539 35.25520573 -34.1117539 35.25520573 -40.5625 22.75 C-41.38878906 22.06421875 -42.21507812 21.3784375 -43.06640625 20.671875 C-43.70449219 20.12015625 -44.34257812 19.5684375 -45 19 C-45 18.01 -45 17.02 -45 16 C-44.34773437 16.54269531 -43.69546875 17.08539063 -43.0234375 17.64453125 C-35.34949346 23.9262996 -30.33170854 27.62106585 -20.17578125 27.35546875 C-13.19444345 26.5740398 -6.53448832 24.58992957 -2 19 C-0.07002646 14.61811038 0.22205652 10.88076967 0.125 6.125 C0.10695313 4.97257812 0.08890625 3.82015625 0.0703125 2.6328125 C0.04710937 1.76398438 0.02390625 0.89515625 0 0 Z " fill="#030301" transform="translate(259,69)"/>
<path d="M0 0 C7.53247512 2.56600801 13.41653422 5.90854216 17.20703125 13.265625 C18.87887744 18.08502518 18.81103333 22.81290101 17.05859375 27.59375 C15.03079414 31.33314996 13.22722737 33.09104119 9.53125 35.28125 C3.29981631 37.1007335 -3.71118158 37.16424149 -10.09375 36.28125 C-14.32855556 33.93151375 -17.784043 30.92113465 -21.34375 27.65625 C-22.19453125 26.88023438 -23.0453125 26.10421875 -23.921875 25.3046875 C-25.33543527 23.98773746 -26.72764055 22.64735945 -28.09375 21.28125 C-27.84375 17.71875 -27.84375 17.71875 -27.09375 14.28125 C-26.43375 13.95125 -25.77375 13.62125 -25.09375 13.28125 C-24.63935547 14.29445313 -24.63935547 14.29445313 -24.17578125 15.328125 C-20.9094894 22.33379932 -20.9094894 22.33379932 -15.09375 27.28125 C-7.50084238 29.81221921 2.88612235 28.34735696 10.203125 25.3359375 C12.07378088 24.38366569 12.07378088 24.38366569 12.90625 22.28125 C13.58569482 16.70980247 11.80698265 11.98151123 8.90625 7.28125 C5.91569014 4.40670324 3.76389408 3.84961806 -0.34375 3.84375 C-5.84595368 3.97651095 -11.04432269 5.23182269 -15.09375 9.28125 C-15.57783735 13.47667372 -15.51612848 15.61952372 -13.21875 19.21875 C-8.9513723 22.03521928 -5.08841035 22.25581787 -0.09375 21.28125 C2.17735924 19.84635632 2.17735924 19.84635632 3.90625 18.28125 C3.78418111 13.54719687 3.78418111 13.54719687 1.28125 9.84375 C-1.88512601 9.09381884 -4.85372731 9.15663374 -8.09375 9.28125 C-9.15726675 12.66516693 -9.30817982 13.8617134 -7.65625 17.09375 C-6.8828125 18.1765625 -6.8828125 18.1765625 -6.09375 19.28125 C-9.32435419 18.72424928 -11.1595723 17.98909878 -13.09375 15.28125 C-13.53125 12.78125 -13.53125 12.78125 -13.09375 10.28125 C-9.47308916 6.52649061 -5.52993392 6.35683863 -0.53125 6.09375 C4.5827953 6.37269793 4.5827953 6.37269793 6.90625 8.28125 C9.58779755 13.16549732 10.2522473 16.62996077 9.90625 22.28125 C4.54359771 24.96257615 -0.31813065 25.6319348 -6.28125 25.71875 C-7.31475586 25.75162109 -7.31475586 25.75162109 -8.36914062 25.78515625 C-11.85159153 25.77167144 -13.94486915 25.37164194 -16.9375 23.5546875 C-21.22469802 19.03448959 -22.77533869 13.47475016 -23.65625 7.40625 C-23.09375 4.28125 -23.09375 4.28125 -20.71875 1.90625 C-14.3904651 -2.0112597 -7.17426528 -1.6667485 0 0 Z " fill="#070603" transform="translate(239.09375,56.71875)"/>
<path d="M0 0 C13.81642196 3.91465289 26.32505189 11.67356818 34 24 C36.97507665 33.78896189 33.55312269 42.20441943 28.97802734 50.95458984 C26.74914638 55.02840583 24.40121994 59.02577245 22 63 C21.67 63 21.34 63 21 63 C20.89510254 61.77651855 20.89510254 61.77651855 20.78808594 60.52832031 C20.51629305 57.44071818 20.23132142 54.35466755 19.93798828 51.26904297 C19.75478103 49.30134952 19.58617754 47.33231356 19.41796875 45.36328125 C18.2604075 33.36119881 15.34597278 23.32182266 9 13.0625 C8.57460937 12.34771484 8.14921875 11.63292969 7.7109375 10.89648438 C5.38074214 7.03307765 2.92038125 3.45443245 0 0 Z " fill="#030301" transform="translate(133,331)"/>
<path d="M0 0 C6.35948091 2.33449299 11.58346372 4.87754059 16.89453125 9.05859375 C18.20706007 9.76534004 19.53006016 10.45822647 20.89453125 11.05859375 C17.75768611 12.03450113 14.77399332 12.94920076 11.5078125 13.35546875 C-0.87120741 14.90978515 -11.82075539 22.00680981 -21.10546875 30.05859375 C-23.91640537 27.24765713 -23.43845943 25.35726455 -23.48046875 21.43359375 C-23.35549554 14.24395843 -22.4526137 9.4504667 -17.3515625 4.28125 C-11.63768858 -0.78847112 -7.49439566 -2.27188598 0 0 Z " fill="#030301" transform="translate(151.10546875,182.94140625)"/>
<path d="M0 0 C-1.58043135 2.39779184 -3.16422444 4.79324617 -4.75 7.1875 C-5.41515625 8.19780273 -5.41515625 8.19780273 -6.09375 9.22851562 C-13.60566192 20.55161815 -13.60566192 20.55161815 -19 23 C-27.36586157 24.04190217 -35.16969513 23.03108575 -43 20 C-39.76267591 11.8157537 -28.81074405 6.87522257 -21.26953125 3.2578125 C-14.99909241 0.84552898 -6.48007141 -2.1600238 0 0 Z " fill="#040301" transform="translate(174,198)"/>
<path d="M0 0 C0.66 0.33 1.32 0.66 2 1 C1.67 1.33 1.34 1.66 1 2 C0.49389093 6.7954154 0.49389093 6.7954154 2.5 10.9375 C2.995 11.288125 3.49 11.63875 4 12 C4.33 11.67 4.66 11.34 5 11 C4.34 10.01 3.68 9.02 3 8 C3.54054054 3.45945946 3.54054054 3.45945946 5 2 C9.37360246 1.49535356 11.31464078 1.47853103 14.875 4.1875 C16.98263518 6.97701716 17.70554242 8.56466156 18 12 C14.91304784 15.29274897 12.47200119 16.37226841 8.0625 16.625 C4.35518345 16.4642942 2.16999943 15.91382966 -0.625 13.4375 C-2.78656393 10.85342074 -3.02645016 9.82660453 -3.5625 6.3125 C-3 3 -3 3 -1.5 1.0625 C-1.005 0.711875 -0.51 0.36125 0 0 Z " fill="#B4954C" transform="translate(226,63)"/>
<path d="M0 0 C7.60060453 -1.35408705 15.17595749 0.70431024 22.4375 2.8125 C23.40365234 3.07353516 24.36980469 3.33457031 25.36523438 3.60351562 C33.65267723 5.9295131 33.65267723 5.9295131 37 9 C38.25 12.6875 38.25 12.6875 39 16 C38.52691406 15.61328125 38.05382812 15.2265625 37.56640625 14.828125 C28.89773979 8.00133894 20.56844824 4.64969352 9.5078125 4.69921875 C5.61900654 5.16563317 3.23260317 6.84493122 0 9 C-0.66 9 -1.32 9 -2 9 C-2.25 3.375 -2.25 3.375 0 0 Z " fill="#0A0804" transform="translate(217,48)"/>
<path d="M0 0 C1.58560393 0.25720674 3.16845924 0.53138799 4.75 0.8125 C5.63171875 0.96332031 6.5134375 1.11414062 7.421875 1.26953125 C10.26376529 2.0747335 11.86006807 2.97470728 14 5 C15.25 8.6875 15.25 8.6875 16 12 C15.52691406 11.61328125 15.05382812 11.2265625 14.56640625 10.828125 C9.66095713 6.96496429 4.80389455 4.28393999 -1 2 C-0.67 1.34 -0.34 0.68 0 0 Z " fill="#18140A" transform="translate(240,52)"/>
<path d="M0 0 C-3.465 1.485 -3.465 1.485 -7 3 C-6.5020163 6.73487777 -6.12508244 8.81237635 -4 12 C-7.23060419 11.44299928 -9.0658223 10.70784878 -11 8 C-11.4375 5.5 -11.4375 5.5 -11 3 C-8.04184961 -0.06771151 -4.03120314 -2.01560157 0 0 Z " fill="#221C0E" transform="translate(237,64)"/>
<path d="M0 0 C5.75 0.75 5.75 0.75 8 3 C7.625 5.125 7.625 5.125 7 7 C4.20171644 6.61402985 3.1794116 6.19863427 1.25 4.0625 C0 2 0 2 0 0 Z " fill="#0D0B05" transform="translate(232,68)"/>
<path d="M0 0 C4.49760431 0.95693709 7.00549678 2.54480397 10 6 C7 6 7 6 5.1875 4.5625 C2.49039097 2.63599355 0.25621035 2.3700239 -3 2 C-2.01 1.34 -1.02 0.68 0 0 Z " fill="#211C0E" transform="translate(241,58)"/>
</svg>
